<?xml version="1.0" encoding="utf-8"?>
<!-- Generator: Adobe Illustrator 16.0.0, SVG Export Plug-In . SVG Version: 6.00 Build 0)  -->
<!DOCTYPE svg PUBLIC "-//W3C//DTD SVG 1.1//EN" "http://www.w3.org/Graphics/SVG/1.1/DTD/svg11.dtd">
<svg version="1.1" id="Layer_1" xmlns="http://www.w3.org/2000/svg" xmlns:xlink="http://www.w3.org/1999/xlink" x="0px" y="0px"
	 width="127.56px" height="113.39px" viewBox="0 0 127.56 113.39" enable-background="new 0 0 127.56 113.39" xml:space="preserve">
<g>
	<path fill="#1D1D1B" d="M289.242,417.527c4.457-1.667,9.277-2.583,14.311-2.583c15.716,0,29.387,8.901,36.255,21.924
		c0.417-0.021,0.86-0.036,1.339-0.036c0.504,0,0.986,0.018,1.456,0.045c-7.069-14.443-21.916-24.416-39.05-24.416
		c-5.563,0-10.875,1.062-15.766,2.973C288.234,416.185,288.721,416.881,289.242,417.527"/>
	<path fill="#1D1D1B" d="M277.533,487.535c-9.125-7.52-14.951-18.902-14.951-31.622c0-2.524,0.242-4.993,0.682-7.394
		c-0.664-1.29-1.21-2.612-1.65-3.957c-0.979,3.621-1.515,7.424-1.515,11.351c0,13.832,6.505,26.165,16.608,34.129
		C276.969,489.212,277.246,488.375,277.533,487.535"/>
	<path fill="#1D1D1B" d="M342.854,444.37c1.078,3.663,1.666,7.535,1.666,11.543c0,22.59-18.377,40.968-40.967,40.968
		c-6.063,0-11.816-1.332-16.998-3.705c-0.719,0.547-1.425,1.129-2.115,1.748c5.77,2.84,12.258,4.44,19.113,4.44
		c23.959,0,43.45-19.492,43.45-43.451c0-4.294-0.634-8.44-1.801-12.36C344.352,443.771,343.568,444.043,342.854,444.37"/>
	<path fill="#1D1D1B" d="M348.953,441.12c-19.861,1.136-13.035,22.086-29.793,35.433c-10.145,8.074-31.863,5.847-43.453,26.381
		c0.776-8.691,6.791-26.189,12.918-32.862c5.523,0.043,9.386,3.172,9.621,3.364c-5.996-9.038-22.601-10.986-31.074-22.178
		c-9.422-12.447-3.891-28.945,0.467-36.623c3.531,9.285,9.154,15.275,15.263,19.807c14.812,10.992,32.466,13.377,30.05,33.265
		c7.449-9.856,2.639-26.226,2.639-26.226s4.426-5.667,10.943-6.672c6.518-1.006,11.043,4.139,11.043,4.139
		S345.851,437.6,348.953,441.12"/>
	<path fill="#1D1D1B" d="M310.232,436.595c-7.139-11.099-22.004-10.372-26.25-25.375c0,0-4.174,8.045-3.381,16.138
		c1.52,2.226,3.108,3.762,4.883,5.174c15.727,12.519,32.277,15.312,27.468,35.175C312.952,467.706,318.793,449.898,310.232,436.595"
		/>
</g>
<path fill="#010101" d="M103.18,10.287C97.213,4.32,89.277,1.034,80.839,1.034c-8.439-0.002-16.373,3.286-22.342,9.255
	c-4.663,4.663-7.691,10.529-8.79,16.901c-0.111,0.643-0.203,1.29-0.272,1.944c-0.071,0.64-0.121,1.288-0.152,1.938
	c-0.027,0.517-0.04,1.036-0.04,1.557l0.002,4.296v1.932l-0.002,1.935l-0.001,23.433h23.436h1.933h1.934
	c0.032-0.527,0.049-1.06,0.05-1.595v-4.245l-1.929-0.002H55.083l0.001-17.652v-3.854l-0.001-4.247
	c0.001-0.535,0.018-1.068,0.05-1.593c0.04-0.65,0.104-1.293,0.192-1.93c0.089-0.652,0.204-1.296,0.343-1.928
	c1.061-4.919,3.533-9.317,6.967-12.75C67.3,9.764,73.738,6.875,80.839,6.874c14.201,0.001,25.754,11.555,25.756,25.755
	c-0.002,7.102-2.891,13.54-7.554,18.203c-3.435,3.434-7.832,5.907-12.75,6.969v0.533l-0.002,4.296c0,0.38-0.006,0.759-0.017,1.132
	c6.372-1.1,12.242-4.125,16.907-8.791c5.968-5.968,9.255-13.903,9.255-22.342S109.147,16.256,103.18,10.287"/>
<path fill="#010101" d="M55.085,36.876h1.928h1.927l17.653-0.002l0.001,17.655v1.928v1.928v4.245
	c-0.001,0.535-0.018,1.067-0.05,1.595c-0.04,0.649-0.103,1.293-0.192,1.928c-0.088,0.652-0.2,1.294-0.34,1.926
	c-1.063,4.919-3.536,9.318-6.97,12.753c-4.664,4.664-11.103,7.553-18.203,7.554C36.638,88.384,25.085,76.83,25.083,62.63
	c0.002-7.102,2.891-13.54,7.554-18.203c3.434-3.435,7.833-5.905,12.752-6.969v-4.829c0-0.382,0.005-0.761,0.017-1.133
	c-6.372,1.097-12.242,4.125-16.908,8.792c-5.968,5.968-9.256,13.901-9.255,22.342c0,8.438,3.287,16.374,9.254,22.341
	c5.968,5.969,13.903,9.256,22.342,9.256c8.438,0,16.373-3.287,22.342-9.256c5.599-5.6,8.838-12.931,9.216-20.783
	c0.012-0.252,0.021-0.504,0.028-0.758c0.003-0.136,0.005-0.272,0.007-0.41c0.001-0.129,0.002-0.259,0.002-0.39l-0.001-0.002v-4.294
	l0.001-27.301l-23.435,0.001l-1.932,0.001l-1.933,0.001c-0.032,0.526-0.049,1.058-0.05,1.593L55.085,36.876z"/>
<path fill="#9E1D20" d="M19.815,109.701c-0.507,0.469-1.205,0.762-1.953,0.762c-1.599,0-2.892-1.283-2.892-2.88
	c0-1.586,1.293-2.88,2.892-2.88c0.748,0,1.446,0.292,1.953,0.773l1.357-1.369c-0.862-0.825-2.029-1.332-3.31-1.332
	c-2.651,0-4.808,2.156-4.808,4.808c0,2.65,2.157,4.806,4.808,4.806c1.281,0,2.448-0.506,3.31-1.33L19.815,109.701z"/>
<path fill="#9E1D20" d="M38.652,107.582c0-2.65-2.157-4.807-4.807-4.807c-2.651,0-4.808,2.156-4.808,4.807
	c0,2.651,2.157,4.808,4.808,4.808C36.495,112.39,38.652,110.233,38.652,107.582 M33.845,110.475c-1.599,0-2.893-1.294-2.893-2.893
	c0-1.586,1.294-2.879,2.893-2.879c1.585,0,2.879,1.293,2.879,2.879C36.724,109.181,35.43,110.475,33.845,110.475"/>
<polygon fill="#9E1D20" points="56.903,112.39 56.903,102.775 54.836,102.775 52.032,109.803 49.216,102.775 47.149,102.775 
	47.149,112.39 49.064,112.39 49.064,107.583 50.992,112.39 53.059,112.39 54.988,107.583 54.988,112.39 "/>
<path fill="#9E1D20" d="M68.09,102.775h-2.688v9.613h1.915v-3.842h0.786c1.586,0,2.867-1.294,2.867-2.88
	C70.97,104.069,69.688,102.775,68.09,102.775 M68.09,106.618h-0.773v-1.915h0.773c0.533,0,0.964,0.432,0.964,0.964
	C69.054,106.188,68.623,106.618,68.09,106.618"/>
<path fill="#9E1D20" d="M83.717,102.775h-2.042l-3.476,9.614h2.042l0.977-2.688h2.955l0.978,2.688h2.042L83.717,102.775z
	 M81.915,107.772l0.774-2.169l0.786,2.169H81.915z"/>
<polygon fill="#9E1D20" points="101.524,109.193 97.682,102.775 95.437,102.775 95.437,112.39 97.352,112.39 97.352,105.984 
	101.208,112.39 103.44,112.39 103.44,102.775 101.524,102.775 "/>
<polygon fill="#9E1D20" points="116.111,112.39 116.111,107.811 118.623,102.775 116.479,102.775 115.16,105.438 113.828,102.775 
	111.685,102.775 114.196,107.811 114.196,112.39 "/>
</svg>
