<?xml version="1.0" encoding="utf-8"?>
<!-- Generator: Adobe Illustrator 16.0.0, SVG Export Plug-In . SVG Version: 6.00 Build 0)  -->
<!DOCTYPE svg PUBLIC "-//W3C//DTD SVG 1.1//EN" "http://www.w3.org/Graphics/SVG/1.1/DTD/svg11.dtd">
<svg version="1.1" id="Layer_1" xmlns="http://www.w3.org/2000/svg" xmlns:xlink="http://www.w3.org/1999/xlink" x="0px" y="0px"
	 width="127.56px" height="113.39px" viewBox="0 0 127.56 113.39" enable-background="new 0 0 127.56 113.39" xml:space="preserve">
<g>
	<path fill="#1D1D1B" d="M289.242,417.527c4.457-1.667,9.277-2.583,14.311-2.583c15.716,0,29.387,8.901,36.255,21.924
		c0.417-0.021,0.86-0.036,1.339-0.036c0.504,0,0.986,0.018,1.456,0.045c-7.069-14.443-21.916-24.416-39.05-24.416
		c-5.563,0-10.875,1.062-15.766,2.973C288.234,416.185,288.721,416.881,289.242,417.527"/>
	<path fill="#1D1D1B" d="M277.533,487.535c-9.125-7.52-14.951-18.902-14.951-31.622c0-2.524,0.242-4.993,0.682-7.394
		c-0.664-1.29-1.21-2.612-1.65-3.957c-0.979,3.621-1.515,7.424-1.515,11.351c0,13.832,6.505,26.165,16.608,34.129
		C276.969,489.212,277.246,488.375,277.533,487.535"/>
	<path fill="#1D1D1B" d="M342.854,444.37c1.078,3.663,1.666,7.535,1.666,11.543c0,22.59-18.377,40.968-40.967,40.968
		c-6.063,0-11.816-1.332-16.998-3.705c-0.719,0.547-1.425,1.129-2.115,1.748c5.77,2.84,12.258,4.44,19.113,4.44
		c23.959,0,43.45-19.492,43.45-43.451c0-4.294-0.634-8.44-1.801-12.36C344.352,443.771,343.568,444.043,342.854,444.37"/>
	<path fill="#1D1D1B" d="M348.953,441.12c-19.861,1.136-13.035,22.086-29.793,35.433c-10.145,8.074-31.863,5.847-43.453,26.381
		c0.776-8.691,6.791-26.189,12.918-32.862c5.523,0.043,9.386,3.172,9.621,3.364c-5.996-9.038-22.601-10.986-31.074-22.178
		c-9.422-12.447-3.891-28.945,0.467-36.623c3.531,9.285,9.154,15.275,15.263,19.807c14.812,10.992,32.466,13.377,30.05,33.265
		c7.449-9.856,2.639-26.226,2.639-26.226s4.426-5.667,10.943-6.672c6.518-1.006,11.043,4.139,11.043,4.139
		S345.851,437.6,348.953,441.12"/>
	<path fill="#1D1D1B" d="M310.232,436.595c-7.139-11.099-22.004-10.372-26.25-25.375c0,0-4.174,8.045-3.381,16.138
		c1.52,2.226,3.108,3.762,4.883,5.174c15.727,12.519,32.277,15.312,27.468,35.175C312.952,467.706,318.793,449.898,310.232,436.595"
		/>
</g>
<polygon fill="#170D0C" points="94.051,4.198 32.682,4.198 1.997,57.346 32.682,110.494 94.051,110.494 124.736,57.346 "/>
<path fill="#EB8D27" d="M94.549,111.356H32.183L1,57.346l31.183-54.01h62.366l31.184,54.01l-0.25,0.431L94.549,111.356z
	 M33.179,109.632h60.374l30.188-52.286L93.553,5.061H33.179L2.992,57.346L33.179,109.632z"/>
<path fill="#944521" d="M108.111,33.888c-1.715,0.815-4.91,2.41-6.461,0.371c-0.531-0.687-0.701-1.801-1.553-1.971
	c-0.262-0.049-0.535,0.012-0.791,0.091c-1.01,0.316-1.922,0.9-2.781,1.533c-0.305,0.225-0.639,0.469-1.01,0.438
	c-1.012-0.085-2.094-3.317-3.051-4.065c-1.398-1.089-2.926-1.041-4.477-0.225c-2.479,1.301-4.354,3.499-6.514,5.233
	c-2.928,2.349-5.764,4.814-8.502,7.376c-0.316,0.298-0.645,0.597-0.98,0.895c-0.242,0.214-0.486,0.426-0.736,0.64
	c-0.484,0.401-0.979,0.796-1.49,1.162c-0.207,0.146-0.414,0.286-0.621,0.426c-0.615,0.401-1.236,0.761-1.873,1.047
	c-0.195,0.085-0.385,0.164-0.578,0.238h-0.008c-0.42,0.158-0.838,0.286-1.266,0.365c-0.821,0.17-1.643,0.183-2.464-0.013
	c-0.305-0.067-0.603-0.158-0.907-0.286c-1.472-0.614-2.58-1.856-3.626-3.061c-0.219-0.256-0.445-0.512-0.657-0.772
	c-0.438-0.5-0.864-0.999-1.284-1.504c-2.891-3.402-5.703-6.877-8.441-10.413c-1.169-1.509-3.152-3.194-4.717-2.099
	c-0.81,0.565-1.515,1.826-2.392,1.381c-0.462-0.23-0.583-0.833-0.895-1.248c-0.864-1.138-2.702-0.492-3.803,0.42
	c-1.108,0.913-2.368,2.093-3.749,1.704c-2.326-0.651-2.429-5.111-4.832-4.875c-0.682,0.067-1.229,0.548-1.735,1.004
	c-2.61,2.386-5.227,4.766-7.837,7.152l5.075-8.795l5.454-9.439l5.445-9.439l0.171-0.292h58.284l0.172,0.292l5.445,9.439l5.453,9.439
	l4.523,7.833L108.111,33.888z"/>
<polygon fill="#3CC1CD" points="121.654,57.349 117.928,63.8 8.804,63.8 5.079,57.349 6.808,54.355 119.926,54.355 "/>
<polygon fill="#39B4C6" points="119.926,54.355 6.808,54.355 12.255,44.915 114.479,44.915 "/>
<polygon fill="#3DA4C3" points="114.479,44.915 12.254,44.915 17.707,35.476 109.025,35.476 "/>
<polygon fill="#FFD090" points="109.025,35.476 17.708,35.476 23.154,26.037 103.578,26.037 "/>
<polygon fill="#ECA95C" points="103.578,26.037 23.154,26.037 28.608,16.598 98.125,16.598 "/>
<polygon fill="#ED9631" points="98.125,16.598 28.608,16.598 34.053,7.159 92.68,7.159 "/>
<path fill="#170D0C" d="M121.654,57.349l-3.727,6.451l-10.801,18.708l-14.619,25.316H34.224L22.285,87.139L8.804,63.8l-3.725-6.451
	l1.729-2.994l4.881-8.454l0.566-0.986l0.31-0.529c0-0.007,0.006-0.013,0.006-0.019l0.178-0.311l4.959-8.581l0.372-0.646
	c2.61-2.385,5.228-4.765,7.838-7.15c0.505-0.457,1.053-0.938,1.734-1.004c2.404-0.237,2.507,4.224,4.833,4.875
	c1.381,0.39,2.641-0.791,3.749-1.704c1.101-0.913,2.938-1.558,3.803-0.42c0.311,0.414,0.432,1.017,0.894,1.248
	c0.876,0.445,1.583-0.816,2.392-1.381c1.564-1.095,3.548,0.59,4.716,2.099c2.738,3.536,5.551,7.012,8.442,10.414
	c0.419,0.505,0.845,1.004,1.284,1.503c0.213,0.261,0.438,0.517,0.657,0.773c1.047,1.205,2.153,2.447,3.627,3.061
	c0.304,0.128,0.603,0.219,0.907,0.287c0.821,0.194,1.644,0.182,2.463,0.012c0.426-0.08,0.846-0.208,1.268-0.365h0.006
	c0.193-0.074,0.383-0.153,0.578-0.238c0.639-0.286,1.258-0.646,1.873-1.047c0.207-0.14,0.414-0.28,0.621-0.426
	c0.512-0.365,1.006-0.76,1.49-1.162c0.25-0.213,0.494-0.426,0.736-0.64c0.336-0.298,0.664-0.597,0.98-0.895
	c2.74-2.562,5.574-5.027,8.502-7.376c2.16-1.734,4.033-3.932,6.512-5.233c1.553-0.816,3.08-0.864,4.479,0.225
	c0.957,0.748,2.039,3.98,3.051,4.065c0.371,0.031,0.705-0.213,1.01-0.438c0.859-0.633,1.771-1.217,2.781-1.533
	c0.254-0.08,0.529-0.141,0.791-0.091c0.852,0.17,1.021,1.284,1.551,1.971c1.553,2.039,4.748,0.444,6.465-0.371l0.438,0.766
	c0.158,0.274,0.316,0.548,0.475,0.822l1.861,3.219l3.592,6.22l5.447,9.44L121.654,57.349z"/>
<path fill="#592611" d="M65.146,59.289h-3.621c0.59,0.847,1.74,2.935,2.836,4.512H8.805l-3.726-6.452l1.729-2.994l4.881-8.454
	c0.06,0.103,0.128,0.2,0.194,0.304c0.298-0.785,0.536-1.412,0.683-1.82c0-0.006,0.004-0.012,0.004-0.018
	c0.062-0.17,0.11-0.304,0.134-0.383c0.013,0.024,0.031,0.049,0.043,0.072c0.566,0.95,1.163,1.894,1.771,2.83
	c0.256-0.669,0.426-1.137,0.482-1.32c0.164,0.273,0.334,0.542,0.499,0.809c0.706-1.789,1.192-3.104,1.313-3.468
	c0.371,0.633,0.761,1.26,1.157,1.88c0.396-1.01,0.658-1.734,0.73-1.972c0.261,0.444,0.535,0.888,0.815,1.326
	c0.043-0.121,0.079-0.219,0.098-0.285c0.274,0.462,0.56,0.924,0.845,1.38c0.317-0.827,0.53-1.417,0.597-1.625
	c0.219,0.372,0.45,0.738,0.681,1.115c0.511-1.315,0.87-2.276,0.955-2.557c0.153,0.25,0.311,0.506,0.463,0.754
	c0.469-1.205,0.779-2.063,0.871-2.349c0.468,0.791,0.961,1.57,1.46,2.342c0.511-1.307,0.864-2.263,0.956-2.549
	c0.426,0.724,0.876,1.436,1.333,2.148c0.541-1.394,0.913-2.404,1.01-2.713c0.627,1.064,1.296,2.117,1.984,3.152
	c0.444-1.132,0.736-1.935,0.821-2.215c0.103,0.177,0.207,0.347,0.317,0.511c0.724-1.844,1.223-3.212,1.345-3.59
	c0.633,1.065,1.295,2.124,1.984,3.17c0.438-1.138,0.742-1.954,0.828-2.222c0.578,0.993,1.198,1.96,1.838,2.928
	c0.013-0.042,0.024-0.079,0.037-0.109c0.267,0.456,0.554,0.906,0.833,1.357c0.657-1.675,1.107-2.891,1.217-3.244
	c0.633,1.065,1.308,2.117,1.996,3.158c0.433-1.125,0.724-1.941,0.81-2.209c0.085,0.14,0.183,0.274,0.268,0.42
	c0.584-1.516,0.992-2.61,1.096-2.939c0.62,1.064,1.296,2.124,1.984,3.17c0.432-1.138,0.736-1.954,0.822-2.222
	c0.968,1.65,2.014,3.269,3.128,4.857c0.358-0.938,0.603-1.601,0.675-1.832c0.53,0.894,1.09,1.777,1.668,2.653
	c0.365-0.95,0.608-1.631,0.682-1.856c0.072,0.122,0.151,0.231,0.224,0.354c0.488-1.266,0.828-2.191,0.919-2.465
	c0.524,0.895,1.083,1.783,1.661,2.659c0.244-0.633,0.438-1.144,0.561-1.485c0.061-0.17,0.104-0.304,0.127-0.376
	c0.373,0.632,0.755,1.259,1.157,1.88c1.338,2.1,2.817,4.132,4.443,6.085c0.078,0.104,0.157,0.201,0.243,0.298
	c0.505,0.602,1.796,3,3.018,4.753h-3.414c0.024,0.03,0.049,0.06,0.073,0.091C62.633,55.133,63.923,57.531,65.146,59.289"/>
<path fill="#592611" d="M121.654,57.349l-3.727,6.451H59.006c0.706-1.619,1.357-3.202,1.875-4.511h-1.09
	c0.773-1.758,1.473-3.475,2.009-4.843h-1.693c0.816-1.844,1.552-3.652,2.1-5.052c0.322-0.822,0.578-1.497,0.749-1.965
	c0.103-0.287,0.17-0.487,0.206-0.598c0.092,0.159,0.188,0.311,0.28,0.463c0.371-0.98,0.626-1.673,0.706-1.923
	c0.413,0.694,0.834,1.381,1.271,2.07c0.232,0.365,0.471,0.73,0.713,1.095c0.225-0.584,0.414-1.077,0.555-1.46h0.006
	c0.133-0.365,0.217-0.633,0.26-0.767c0.105,0.177,0.207,0.353,0.318,0.529c0.291,0.487,0.596,0.974,0.906,1.455
	c0.4-1.01,0.734-1.881,0.967-2.501c0.164-0.451,0.281-0.767,0.328-0.913c0.098,0.165,0.195,0.328,0.293,0.486
	c0.207,0.348,0.426,0.693,0.641,1.035c0.344-0.87,0.631-1.619,0.85-2.197c0.213-0.584,0.359-0.986,0.422-1.169
	c0.102,0.177,0.207,0.353,0.314,0.529c0.471,0.792,0.969,1.576,1.48,2.355c0.193-0.517,0.328-0.882,0.375-1.041
	c0.063,0.11,0.131,0.212,0.189,0.316c0.227-0.603,0.379-1.028,0.443-1.21c0.41,0.699,0.842,1.393,1.273,2.074
	c0.615-1.551,1.035-2.689,1.139-3.024c0.633,1.078,1.291,2.13,1.984,3.17c0.43-1.137,0.736-1.954,0.82-2.221
	c0.578,0.973,1.188,1.941,1.814,2.902c0.25-0.669,0.42-1.137,0.48-1.32c0.158,0.273,0.33,0.542,0.498,0.809
	c0.707-1.789,1.193-3.104,1.316-3.468c0.371,0.633,0.76,1.26,1.154,1.88c0.391-1.01,0.652-1.734,0.73-1.971
	c0.262,0.444,0.535,0.888,0.816,1.326c0.043-0.121,0.072-0.219,0.098-0.286c0.275,0.462,0.555,0.925,0.846,1.381
	c0.316-0.827,0.529-1.417,0.59-1.625c0.225,0.372,0.457,0.737,0.682,1.115c0.518-1.315,0.871-2.276,0.961-2.557
	c0.148,0.25,0.305,0.505,0.463,0.754c0.463-1.205,0.781-2.063,0.865-2.349c0.469,0.791,0.967,1.57,1.467,2.342
	c0.51-1.307,0.857-2.263,0.949-2.549c0.432,0.725,0.877,1.437,1.34,2.148c0.539-1.394,0.912-2.404,1.008-2.713
	c0.623,1.064,1.299,2.117,1.984,3.152c0.445-1.132,0.738-1.935,0.822-2.215c0.104,0.177,0.207,0.347,0.311,0.511
	c0.73-1.844,1.229-3.213,1.35-3.59c0.633,1.064,1.297,2.124,1.986,3.17c0.438-1.137,0.734-1.954,0.82-2.222
	c0.584,0.992,1.205,1.96,1.838,2.928c0.018-0.042,0.031-0.079,0.037-0.109c0.268,0.456,0.555,0.906,0.834,1.356
	c0.662-1.674,1.107-2.89,1.223-3.243c0.633,1.065,1.303,2.117,1.996,3.158c0.432-1.125,0.725-1.941,0.809-2.209
	c0.086,0.14,0.184,0.274,0.264,0.42c0.359-0.919,0.645-1.686,0.838-2.215l3.592,6.22l5.447,9.44L121.654,57.349z"/>
<path fill="#944521" d="M108.551,34.654l-0.439-0.766c0.008,0,0.014-0.007,0.02-0.007C108.264,34.143,108.404,34.399,108.551,34.654
	"/>
<path fill="#EB8D27" d="M92.676,108.111h-58.62l-0.082-0.144L4.747,57.346l0.083-0.143L34.056,6.581h58.62l0.082,0.144
	l29.229,50.621l-0.084,0.144L92.676,108.111z M34.389,107.536h57.955l28.979-50.19L92.344,7.156H34.389L5.411,57.346L34.389,107.536
	z"/>
<rect x="53.097" y="15.883" fill="#B56828" width="1.424" height="6.819"/>
<rect x="74.207" y="18.171" fill="#B56828" width="1.424" height="6.819"/>
<path fill="#EB8D27" d="M106.299,56.348l-2.758,0.183H83.215c0,0-23.965-25.341-29.053-38.322c-0.005-0.012-0.012-0.024-0.018-0.037
	c0,0,14.534,4.328,20.88,2.763C75.023,20.934,93.793,50.646,106.299,56.348"/>
<polygon fill="#E16F26" points="103.541,56.53 100.688,63.798 81.098,63.798 83.215,56.53 "/>
<path fill="#180C0C" d="M64.587,63.798H54.521V30.294C56.584,40.238,61.087,60.299,64.587,63.798"/>
<path fill="#F9AE32" d="M54.144,18.171c5.063,12.97,29.071,38.359,29.071,38.359l-2.117,7.268h-16.51
	c-3.5-3.5-8.003-23.56-10.067-33.503c-0.693-3.377-1.113-5.593-1.113-5.593c-0.068,0.864-0.17,1.795-0.311,2.781
	c-1.856,13.219-9.896,36.315-9.896,36.315H28.851l-2.483-8.095c12.774-9.494,27.313-36.668,27.763-37.513
	C54.138,18.184,54.138,18.178,54.144,18.171"/>
<path fill="#B56828" d="M53.407,24.702c0,0,0.42,2.215,1.113,5.593v33.503h-1.417V27.483h-0.007
	C53.237,26.497,53.339,25.566,53.407,24.702"/>
<path fill="#180C0C" d="M53.103,27.483v36.315h-9.902c0,0,8.04-23.096,9.895-36.315H53.103z"/>
<path fill="#EB8D27" d="M22.868,55.703c0,0,11.362-7.596,31.263-37.513c-0.45,0.845-14.989,28.019-27.763,37.513H22.868z"/>
<path fill="#D97D27" d="M74.207,22.703c0,0,12.715,21.419,26.609,32.281c0,0-18.676-13.209-26.609-28.475c0,0-9.988,0-16.741-5.578
	C57.466,20.931,67.268,24.963,74.207,22.703"/>
<path fill="#E0952C" d="M83.215,56.53l-1.479,0.603C61.513,39.837,54.131,18.19,54.131,18.19l0.031,0.018
	C59.25,31.189,83.215,56.53,83.215,56.53"/>
<polygon fill="#E0952C" points="81.736,57.133 81.098,63.798 83.215,56.53 "/>
<path fill="#E0952C" d="M52.36,25.755c0,0-4.1,23.615-10.159,36.269h-2.584C39.617,62.023,50.667,38.053,52.36,25.755"/>
<path fill="#E0952C" d="M55.033,25.755c0,0,4.099,23.615,10.16,36.269h2.584C67.777,62.023,56.726,38.053,55.033,25.755"/>
<rect x="89.301" y="90.594" fill="#EB8D27" width="12.859" height="0.734"/>
<rect x="24.572" y="90.594" fill="#EB8D27" width="12.861" height="0.734"/>
<path fill="#FFDEB1" d="M91.039,23.598c0,2.988-2.422,5.409-5.408,5.409c-2.988,0-5.41-2.421-5.41-5.409
	c0-2.986,2.422-5.408,5.41-5.408C88.617,18.19,91.039,20.612,91.039,23.598"/>
<polygon fill="#592611" points="35.604,97.829 36.412,99.468 38.219,99.729 36.911,101.004 37.22,102.804 35.604,101.955 
	33.988,102.804 34.297,101.004 32.989,99.729 34.796,99.468 "/>
<polygon fill="#592611" points="42.002,97.829 42.811,99.468 44.618,99.729 43.31,101.004 43.619,102.804 42.002,101.955 
	40.387,102.804 40.696,101.004 39.388,99.729 41.194,99.468 "/>
<polygon fill="#592611" points="91.129,97.829 90.32,99.468 88.514,99.729 89.822,101.004 89.514,102.804 91.129,101.955 
	92.746,102.804 92.438,101.004 93.744,99.729 91.938,99.468 "/>
<polygon fill="#592611" points="84.73,97.829 83.922,99.468 82.115,99.729 83.424,101.004 83.113,102.804 84.73,101.955 
	86.346,102.804 86.037,101.004 87.346,99.729 85.539,99.468 "/>
</svg>
