<?xml version="1.0" encoding="utf-8"?>
<!-- Generator: Adobe Illustrator 16.0.0, SVG Export Plug-In . SVG Version: 6.00 Build 0)  -->
<!DOCTYPE svg PUBLIC "-//W3C//DTD SVG 1.1//EN" "http://www.w3.org/Graphics/SVG/1.1/DTD/svg11.dtd">
<svg version="1.1" id="Layer_1" xmlns="http://www.w3.org/2000/svg" xmlns:xlink="http://www.w3.org/1999/xlink" x="0px" y="0px"
	 width="127.56px" height="113.39px" viewBox="0 0 127.56 113.39" enable-background="new 0 0 127.56 113.39" xml:space="preserve">
<g>
	<path fill="#1D1D1B" d="M289.242,417.527c4.457-1.667,9.277-2.583,14.311-2.583c15.716,0,29.387,8.901,36.255,21.924
		c0.417-0.021,0.86-0.036,1.339-0.036c0.504,0,0.986,0.018,1.456,0.045c-7.069-14.443-21.916-24.416-39.05-24.416
		c-5.563,0-10.875,1.062-15.766,2.973C288.234,416.185,288.721,416.881,289.242,417.527"/>
	<path fill="#1D1D1B" d="M277.533,487.535c-9.125-7.52-14.951-18.902-14.951-31.622c0-2.524,0.242-4.993,0.682-7.394
		c-0.664-1.29-1.21-2.612-1.65-3.957c-0.979,3.621-1.515,7.424-1.515,11.351c0,13.832,6.505,26.165,16.608,34.129
		C276.969,489.212,277.246,488.375,277.533,487.535"/>
	<path fill="#1D1D1B" d="M342.854,444.37c1.078,3.663,1.666,7.535,1.666,11.543c0,22.59-18.377,40.968-40.967,40.968
		c-6.063,0-11.816-1.332-16.998-3.705c-0.719,0.547-1.425,1.129-2.115,1.748c5.77,2.84,12.258,4.44,19.113,4.44
		c23.959,0,43.45-19.492,43.45-43.451c0-4.294-0.634-8.44-1.801-12.36C344.352,443.771,343.568,444.043,342.854,444.37"/>
	<path fill="#1D1D1B" d="M348.953,441.12c-19.861,1.136-13.035,22.086-29.793,35.433c-10.145,8.074-31.863,5.847-43.453,26.381
		c0.776-8.691,6.791-26.189,12.918-32.862c5.523,0.043,9.386,3.172,9.621,3.364c-5.996-9.038-22.601-10.986-31.074-22.178
		c-9.422-12.447-3.891-28.945,0.467-36.623c3.531,9.285,9.154,15.275,15.263,19.807c14.812,10.992,32.466,13.377,30.05,33.265
		c7.449-9.856,2.639-26.226,2.639-26.226s4.426-5.667,10.943-6.672c6.518-1.006,11.043,4.139,11.043,4.139
		S345.851,437.6,348.953,441.12"/>
	<path fill="#1D1D1B" d="M310.232,436.595c-7.139-11.099-22.004-10.372-26.25-25.375c0,0-4.174,8.045-3.381,16.138
		c1.52,2.226,3.108,3.762,4.883,5.174c15.727,12.519,32.277,15.312,27.468,35.175C312.952,467.706,318.793,449.898,310.232,436.595"
		/>
</g>
<polygon fill="#010101" points="37.637,101.309 37.631,101.297 34.404,95.707 8.815,51.388 2.361,51.388 31.176,101.298 
	31.17,101.309 31.182,101.309 37.623,101.309 "/>
<polygon fill="#010101" points="63.449,101.309 63.443,101.297 60.216,95.707 56.99,90.12 53.762,84.532 50.537,78.942 
	47.31,73.353 34.627,51.388 28.175,51.388 44.082,78.942 47.31,84.532 50.537,90.12 53.762,95.707 56.99,101.297 56.982,101.309 
	56.997,101.309 63.435,101.309 "/>
<polygon fill="#010101" points="73.121,95.707 69.896,90.12 66.669,84.532 63.443,78.942 60.216,73.353 56.99,67.766 53.762,62.178 
	47.534,51.388 41.081,51.388 50.535,67.765 56.99,78.942 60.216,84.532 63.443,90.12 66.669,95.707 69.896,101.297 69.889,101.309 
	69.902,101.309 76.343,101.309 76.354,101.309 76.349,101.298 "/>
<polygon fill="#9E1D20" points="87.032,15.73 80.576,15.73 57.023,56.531 60.25,62.12 "/>
<polygon fill="#010101" points="44.09,101.309 50.529,101.309 50.543,101.309 50.537,101.297 47.31,95.707 44.084,90.12 
	40.856,84.532 21.722,51.388 15.269,51.388 37.628,90.119 40.856,95.707 44.084,101.297 44.076,101.309 "/>
<polygon fill="#9E1D20" points="66.703,73.297 99.938,15.73 93.485,15.73 63.476,67.706 63.51,67.767 "/>
<polygon fill="#9E1D20" points="73.155,84.475 112.844,15.73 106.391,15.73 69.929,78.884 69.963,78.943 "/>
<polygon fill="#9E1D20" points="125.75,15.73 119.297,15.73 76.382,90.061 76.416,90.12 79.609,95.651 "/>
</svg>
