<?xml version="1.0" encoding="utf-8"?>
<!-- Generator: Adobe Illustrator 16.0.0, SVG Export Plug-In . SVG Version: 6.00 Build 0)  -->
<!DOCTYPE svg PUBLIC "-//W3C//DTD SVG 1.1//EN" "http://www.w3.org/Graphics/SVG/1.1/DTD/svg11.dtd">
<svg version="1.1" id="Layer_1" xmlns="http://www.w3.org/2000/svg" xmlns:xlink="http://www.w3.org/1999/xlink" x="0px" y="0px"
	 width="127.56px" height="113.39px" viewBox="0 0 127.56 113.39" enable-background="new 0 0 127.56 113.39" xml:space="preserve">
<g>
	<path fill="#1D1D1B" d="M289.242,417.527c4.457-1.667,9.277-2.583,14.311-2.583c15.716,0,29.387,8.901,36.255,21.924
		c0.417-0.021,0.86-0.036,1.339-0.036c0.504,0,0.986,0.018,1.456,0.045c-7.069-14.443-21.916-24.416-39.05-24.416
		c-5.563,0-10.875,1.062-15.766,2.973C288.234,416.185,288.721,416.881,289.242,417.527"/>
	<path fill="#1D1D1B" d="M277.533,487.535c-9.125-7.52-14.951-18.902-14.951-31.622c0-2.524,0.242-4.993,0.682-7.394
		c-0.664-1.29-1.21-2.612-1.65-3.957c-0.979,3.621-1.515,7.424-1.515,11.351c0,13.832,6.505,26.165,16.608,34.129
		C276.969,489.212,277.246,488.375,277.533,487.535"/>
	<path fill="#1D1D1B" d="M342.854,444.37c1.078,3.663,1.666,7.535,1.666,11.543c0,22.59-18.377,40.968-40.967,40.968
		c-6.063,0-11.816-1.332-16.998-3.705c-0.719,0.547-1.425,1.129-2.115,1.748c5.77,2.84,12.258,4.44,19.113,4.44
		c23.959,0,43.45-19.492,43.45-43.451c0-4.294-0.634-8.44-1.801-12.36C344.352,443.771,343.568,444.043,342.854,444.37"/>
	<path fill="#1D1D1B" d="M348.953,441.12c-19.861,1.136-13.035,22.086-29.793,35.433c-10.145,8.074-31.863,5.847-43.453,26.381
		c0.776-8.691,6.791-26.189,12.918-32.862c5.523,0.043,9.386,3.172,9.621,3.364c-5.996-9.038-22.601-10.986-31.074-22.178
		c-9.422-12.447-3.891-28.945,0.467-36.623c3.531,9.285,9.154,15.275,15.263,19.807c14.812,10.992,32.466,13.377,30.05,33.265
		c7.449-9.856,2.639-26.226,2.639-26.226s4.426-5.667,10.943-6.672c6.518-1.006,11.043,4.139,11.043,4.139
		S345.851,437.6,348.953,441.12"/>
	<path fill="#1D1D1B" d="M310.232,436.595c-7.139-11.099-22.004-10.372-26.25-25.375c0,0-4.174,8.045-3.381,16.138
		c1.52,2.226,3.108,3.762,4.883,5.174c15.727,12.519,32.277,15.312,27.468,35.175C312.952,467.706,318.793,449.898,310.232,436.595"
		/>
</g>
<path fill="#010101" d="M106.232,82.747c-1.466,2.583-3.197,5.014-5.17,7.247l0.056,0.055l-1.829,1.836
	c-8.149,8.199-19.005,12.717-30.563,12.717c-11.511,0-22.334-4.484-30.474-12.624C30.114,83.839,25.63,73.016,25.63,61.506
	c0-0.851,0.025-1.714,0.078-2.57c0.005-0.117,0.013-0.234,0.021-0.357l0.002-0.033c0.005-0.078,0.011-0.155,0.016-0.235l0.002-0.04
	c0.013-0.176,0.029-0.354,0.044-0.534c0.013-0.145,0.026-0.3,0.041-0.457c0.024-0.228,0.048-0.461,0.074-0.695
	c0.016-0.134,0.031-0.284,0.051-0.434c0.021-0.188,0.05-0.4,0.078-0.613c0.019-0.12,0.034-0.234,0.053-0.351
	c0.025-0.194,0.059-0.409,0.095-0.625c0.018-0.114,0.039-0.241,0.06-0.366c0.018-0.103,0.036-0.213,0.058-0.319
	c0.022-0.137,0.052-0.296,0.08-0.448c0.026-0.135,0.054-0.283,0.083-0.431c0.034-0.169,0.067-0.338,0.106-0.508
	c0.247-1.175,0.55-2.355,0.897-3.504l0.011-0.031c0.044-0.15,0.09-0.304,0.14-0.454c0.039-0.128,0.081-0.26,0.125-0.392
	c0.243-0.752,0.516-1.513,0.804-2.249c0.039-0.101,0.081-0.21,0.125-0.316c0.043-0.114,0.091-0.231,0.141-0.35
	c0.057-0.143,0.122-0.298,0.189-0.457c0.049-0.119,0.106-0.252,0.164-0.384l0.025-0.06c0.081-0.18,0.159-0.358,0.239-0.537
	c0.06-0.132,0.12-0.262,0.182-0.395c1.086-2.344,2.404-4.612,3.914-6.738l0.244-0.337c0.171-0.236,0.342-0.467,0.513-0.695
	c0.083-0.106,0.169-0.223,0.257-0.334c0.189-0.244,0.379-0.485,0.57-0.724c0.112-0.138,0.226-0.281,0.343-0.417
	c0.104-0.13,0.222-0.268,0.34-0.408c0.114-0.137,0.233-0.274,0.352-0.409c0.133-0.153,0.268-0.309,0.405-0.462l-5.061-5.063
	c-8.396,9.246-13.008,21.184-13.008,33.733c0,13.421,5.227,26.037,14.717,35.527c9.491,9.49,22.107,14.717,35.529,14.717
	c13.464,0,26.11-5.258,35.607-14.8c2.71-2.721,5.099-5.74,7.114-8.987L106.232,82.747z"/>
<path fill="#010101" d="M41.932,88.301c7.155,7.156,16.672,11.098,26.795,11.098c0.318,0,0.634-0.005,0.952-0.013
	c0.158-0.003,0.312-0.009,0.468-0.013h0.022c0.233-0.011,0.465-0.021,0.698-0.034c0.187-0.011,0.371-0.02,0.555-0.033
	c0.096-0.009,0.177-0.014,0.255-0.019l0.127-0.01c0.168-0.014,0.342-0.03,0.513-0.047c0.153-0.014,0.296-0.026,0.44-0.042
	c0.107-0.01,0.197-0.021,0.286-0.031l0.192-0.021c0.124-0.015,0.248-0.03,0.375-0.049c0.468-0.056,0.929-0.124,1.378-0.199
	c0.127-0.021,0.251-0.045,0.376-0.064l0.042-0.009c0.102-0.017,0.197-0.033,0.296-0.052l0.05-0.009
	c0.129-0.025,0.259-0.05,0.385-0.077c0.344-0.066,0.675-0.134,1.007-0.208c0.223-0.051,0.446-0.105,0.667-0.159l0.027-0.008
	c0.058-0.014,0.112-0.027,0.17-0.042c0.165-0.041,0.313-0.08,0.462-0.118c0.13-0.035,0.251-0.065,0.37-0.1
	c0.106-0.028,0.197-0.056,0.289-0.08c0.087-0.026,0.158-0.045,0.225-0.064l0.052-0.017c0.095-0.025,0.187-0.054,0.28-0.082
	c0.156-0.048,0.293-0.089,0.428-0.133c0.109-0.034,0.207-0.064,0.31-0.096c0.318-0.104,0.632-0.21,0.946-0.321
	c0.088-0.032,0.171-0.061,0.251-0.091l0.063-0.021c0.112-0.039,0.21-0.075,0.306-0.114c0.156-0.057,0.296-0.108,0.437-0.166
	c0.119-0.044,0.22-0.083,0.322-0.125c0.194-0.077,0.368-0.147,0.544-0.22l0.526-0.226c0.166-0.069,0.326-0.14,0.481-0.213
	c0.094-0.041,0.172-0.078,0.252-0.113l0.075-0.033c0.128-0.061,0.261-0.123,0.39-0.186c0.797-0.379,1.582-0.788,2.342-1.219
	c0.083-0.047,0.161-0.094,0.238-0.138c0.177-0.101,0.351-0.205,0.525-0.306l0.865-0.534c0.385-0.243,0.778-0.506,1.207-0.8
	c0.116-0.083,0.235-0.166,0.353-0.249l0.049-0.033c0.089-0.063,0.176-0.126,0.262-0.189l0.026-0.019
	c0.064-0.045,0.129-0.092,0.192-0.14l0.022-0.019c0.109-0.077,0.219-0.157,0.324-0.238c0.122-0.091,0.238-0.178,0.354-0.267
	c0.08-0.063,0.146-0.116,0.217-0.171l0.08-0.063c0.12-0.093,0.239-0.188,0.359-0.285c0.123-0.099,0.244-0.196,0.363-0.295
	l0.031-0.026c0.228-0.187,0.454-0.378,0.679-0.575c0.067-0.06,0.138-0.121,0.207-0.18l-5.067-5.067
	c-5.548,4.728-12.583,7.319-19.918,7.319c-16.952,0-30.743-13.791-30.743-30.744c0-8.26,3.232-16.016,9.098-21.831
	c2.756-2.729,6.052-4.944,9.613-6.464l-5.374-5.374c-3.427,1.776-6.555,4.059-9.306,6.795c-7.211,7.167-11.182,16.709-11.182,26.874
	C30.833,71.627,34.775,81.145,41.932,88.301"/>
<path fill="#010101" d="M111.721,52.074c0-13.42-5.227-26.036-14.717-35.527C87.513,7.057,74.897,1.83,61.475,1.83
	c-13.465,0-26.111,5.255-35.607,14.801c-2.71,2.718-5.1,5.74-7.114,8.986l5.216,5.217c1.466-2.583,3.201-5.015,5.169-7.248
	l-0.055-0.054l1.829-1.837c8.149-8.202,19.004-12.717,30.562-12.717c11.511,0,22.335,4.485,30.473,12.624
	c8.14,8.14,12.624,18.96,12.624,30.472c0,0.853-0.025,1.717-0.077,2.57c-0.005,0.114-0.014,0.237-0.021,0.357
	c-0.005,0.086-0.013,0.174-0.018,0.265l-0.003,0.042c-0.014,0.178-0.028,0.357-0.044,0.534c-0.013,0.147-0.025,0.306-0.042,0.46
	c-0.022,0.224-0.047,0.46-0.072,0.693c-0.016,0.134-0.03,0.283-0.052,0.433c-0.021,0.189-0.05,0.401-0.078,0.615
	c-0.02,0.119-0.033,0.232-0.052,0.347c-0.025,0.198-0.059,0.412-0.096,0.628c-0.019,0.115-0.039,0.238-0.06,0.366
	c-0.018,0.105-0.038,0.211-0.058,0.318c-0.021,0.137-0.052,0.297-0.081,0.449c-0.024,0.134-0.054,0.283-0.084,0.431
	c-0.032,0.165-0.065,0.337-0.104,0.508c-0.249,1.176-0.549,2.358-0.897,3.504c-0.05,0.161-0.097,0.322-0.15,0.485
	c-0.038,0.127-0.08,0.257-0.124,0.392c-0.247,0.758-0.516,1.515-0.804,2.249c-0.04,0.101-0.081,0.207-0.122,0.313
	c-0.047,0.117-0.095,0.234-0.144,0.354c-0.057,0.144-0.124,0.302-0.188,0.457c-0.05,0.119-0.107,0.251-0.164,0.384l-0.026,0.06
	c-0.08,0.179-0.158,0.357-0.238,0.534c-0.06,0.133-0.12,0.265-0.182,0.394c-1.086,2.346-2.404,4.615-3.914,6.74l-0.241,0.336
	c-0.174,0.239-0.345,0.47-0.516,0.695c-0.083,0.11-0.169,0.227-0.257,0.337c-0.189,0.244-0.379,0.485-0.57,0.724
	c-0.111,0.138-0.226,0.28-0.343,0.419c-0.099,0.12-0.207,0.251-0.316,0.381l-0.021,0.022c-0.119,0.139-0.236,0.278-0.355,0.413
	c-0.132,0.152-0.268,0.309-0.405,0.461l5.061,5.063C107.109,76.561,111.721,64.625,111.721,52.074"/>
<path fill="#010101" d="M73.508,80.371l5.374,5.374c3.425-1.776,6.555-4.06,9.306-6.795c7.211-7.167,11.182-16.712,11.182-26.876
	c0-10.121-3.942-19.638-11.099-26.793c-7.156-7.156-16.672-11.099-26.795-11.099c-0.316,0-0.633,0.005-0.953,0.013
	c-0.158,0.003-0.313,0.006-0.466,0.013h-0.024c-0.233,0.011-0.464,0.021-0.697,0.034c-0.188,0.011-0.371,0.022-0.556,0.033
	c-0.096,0.006-0.176,0.014-0.254,0.019l-0.13,0.011c-0.166,0.013-0.339,0.028-0.511,0.044c-0.153,0.015-0.295,0.029-0.441,0.044
	c-0.106,0.011-0.197,0.021-0.288,0.032l-0.148,0.015c-0.019,0.003-0.034,0.006-0.049,0.008c-0.125,0.013-0.244,0.028-0.369,0.044
	c-0.466,0.059-0.928,0.127-1.377,0.201c-0.126,0.021-0.251,0.042-0.376,0.065l-0.041,0.008c-0.099,0.015-0.193,0.034-0.285,0.051
	l-0.063,0.011c-0.125,0.023-0.25,0.046-0.374,0.073c-0.353,0.067-0.684,0.136-1.017,0.213c-0.223,0.049-0.446,0.104-0.667,0.157
	l-0.028,0.008c-0.058,0.01-0.111,0.026-0.169,0.039c-0.166,0.042-0.313,0.081-0.461,0.119c-0.128,0.034-0.25,0.065-0.371,0.101
	c-0.106,0.029-0.197,0.054-0.291,0.08c-0.088,0.026-0.155,0.044-0.223,0.065l-0.052,0.016c-0.094,0.025-0.187,0.051-0.281,0.083
	c-0.156,0.044-0.292,0.087-0.427,0.132c-0.109,0.034-0.208,0.064-0.309,0.096c-0.319,0.104-0.632,0.209-0.946,0.321
	c-0.086,0.029-0.164,0.058-0.244,0.086l-0.073,0.026c-0.106,0.039-0.2,0.073-0.295,0.109c-0.164,0.06-0.304,0.114-0.444,0.168
	c-0.116,0.044-0.217,0.085-0.322,0.127c-0.194,0.076-0.368,0.149-0.544,0.221l-0.527,0.226c-0.166,0.069-0.324,0.14-0.483,0.212
	c-0.09,0.042-0.171,0.078-0.251,0.114l-0.075,0.035c-0.127,0.06-0.259,0.121-0.39,0.184c-0.795,0.379-1.584,0.789-2.342,1.219
	c-0.086,0.046-0.161,0.09-0.239,0.138c-0.166,0.095-0.332,0.191-0.495,0.29l-0.548,0.332c-0.112,0.07-0.231,0.145-0.348,0.218
	c-0.386,0.245-0.782,0.506-1.204,0.799c-0.109,0.076-0.218,0.15-0.324,0.226l-0.07,0.049c-0.098,0.069-0.186,0.131-0.274,0.197
	l-0.036,0.026c-0.06,0.044-0.12,0.088-0.179,0.132l-0.023,0.018c-0.109,0.079-0.218,0.159-0.324,0.239
	c-0.122,0.091-0.236,0.179-0.35,0.268c-0.083,0.061-0.151,0.116-0.217,0.167l-0.083,0.065c-0.119,0.093-0.239,0.187-0.358,0.285
	c-0.135,0.107-0.265,0.215-0.395,0.321c-0.23,0.188-0.454,0.379-0.68,0.577c-0.069,0.059-0.137,0.119-0.207,0.179l5.068,5.068
	c5.548-4.728,12.582-7.322,19.917-7.322c16.953,0,30.744,13.793,30.744,30.744c0,8.263-3.232,16.017-9.1,21.834
	C80.364,76.636,77.068,78.851,73.508,80.371"/>
</svg>
