<?xml version="1.0" encoding="utf-8"?>
<!-- Generator: Adobe Illustrator 16.0.0, SVG Export Plug-In . SVG Version: 6.00 Build 0)  -->
<!DOCTYPE svg PUBLIC "-//W3C//DTD SVG 1.1//EN" "http://www.w3.org/Graphics/SVG/1.1/DTD/svg11.dtd">
<svg version="1.1" id="Layer_1" xmlns="http://www.w3.org/2000/svg" xmlns:xlink="http://www.w3.org/1999/xlink" x="0px" y="0px"
	 width="127.56px" height="113.39px" viewBox="0 0 127.56 113.39" enable-background="new 0 0 127.56 113.39" xml:space="preserve">
<g>
	<path fill="#1D1D1B" d="M45.816,8.661c5.456-2.041,11.356-3.162,17.518-3.162c19.239,0,35.975,10.897,44.382,26.839
		c0.511-0.025,1.054-0.044,1.64-0.044c0.616,0,1.207,0.021,1.782,0.055c-8.654-17.682-26.829-29.89-47.804-29.89
		c-6.809,0-13.313,1.299-19.301,3.639C44.582,7.017,45.177,7.87,45.816,8.661"/>
	<path fill="#1D1D1B" d="M31.482,94.363c-11.17-9.205-18.303-23.14-18.303-38.711c0-3.091,0.296-6.113,0.833-9.052
		c-0.813-1.579-1.481-3.197-2.02-4.843c-1.2,4.432-1.855,9.088-1.855,13.895c0,16.933,7.963,32.03,20.331,41.78
		C30.791,96.416,31.13,95.392,31.482,94.363"/>
	<path fill="#1D1D1B" d="M111.446,41.521c1.319,4.484,2.039,9.225,2.039,14.131c0,27.654-22.497,50.152-50.151,50.152
		c-7.421,0-14.465-1.631-20.808-4.536c-0.88,0.67-1.745,1.382-2.591,2.14c7.064,3.477,15.007,5.437,23.398,5.437
		c29.331,0,53.191-23.862,53.191-53.192c0-5.257-0.775-10.332-2.204-15.131C113.279,40.788,112.321,41.121,111.446,41.521"/>
	<path fill="#1D1D1B" d="M118.913,37.543C94.599,38.934,102.955,64.58,82.44,80.919c-12.418,9.885-39.007,7.157-53.193,32.295
		c0.95-10.64,8.313-32.061,15.814-40.229c6.761,0.053,11.489,3.883,11.778,4.118c-7.34-11.063-27.668-13.449-38.041-27.15
		C7.263,34.716,14.034,14.519,19.369,5.12c4.322,11.367,11.207,18.7,18.685,24.248C56.185,42.824,77.798,45.743,74.84,70.089
		c9.119-12.066,3.23-32.105,3.23-32.105s5.418-6.937,13.396-8.168c7.979-1.231,13.519,5.067,13.519,5.067
		S115.115,33.234,118.913,37.543"/>
	<path fill="#1D1D1B" d="M71.512,32.003C62.772,18.416,44.574,19.306,39.376,0.939c0,0-5.108,9.849-4.138,19.755
		c1.859,2.725,3.805,4.605,5.976,6.335c19.253,15.324,39.514,18.744,33.626,43.06C74.841,70.089,81.991,48.289,71.512,32.003"/>
</g>
<g>
	<path fill="#1D1D1B" d="M289.242,417.527c4.457-1.667,9.277-2.583,14.311-2.583c15.716,0,29.387,8.901,36.255,21.924
		c0.417-0.021,0.86-0.036,1.339-0.036c0.504,0,0.986,0.018,1.456,0.045c-7.069-14.443-21.916-24.416-39.05-24.416
		c-5.563,0-10.875,1.062-15.766,2.973C288.234,416.185,288.721,416.881,289.242,417.527"/>
	<path fill="#1D1D1B" d="M277.533,487.535c-9.125-7.52-14.951-18.902-14.951-31.622c0-2.524,0.242-4.993,0.682-7.394
		c-0.664-1.29-1.21-2.612-1.65-3.957c-0.979,3.621-1.515,7.424-1.515,11.351c0,13.832,6.505,26.165,16.608,34.129
		C276.969,489.212,277.246,488.375,277.533,487.535"/>
	<path fill="#1D1D1B" d="M342.854,444.37c1.078,3.663,1.666,7.535,1.666,11.543c0,22.59-18.377,40.968-40.967,40.968
		c-6.063,0-11.816-1.332-16.998-3.705c-0.719,0.547-1.425,1.129-2.115,1.748c5.77,2.84,12.258,4.44,19.113,4.44
		c23.959,0,43.45-19.492,43.45-43.451c0-4.294-0.634-8.44-1.801-12.36C344.352,443.771,343.568,444.043,342.854,444.37"/>
	<path fill="#1D1D1B" d="M348.953,441.12c-19.861,1.136-13.035,22.086-29.793,35.433c-10.145,8.074-31.863,5.847-43.453,26.381
		c0.776-8.691,6.791-26.189,12.918-32.862c5.523,0.043,9.386,3.172,9.621,3.364c-5.996-9.038-22.601-10.986-31.074-22.178
		c-9.422-12.447-3.891-28.945,0.467-36.623c3.531,9.285,9.154,15.275,15.263,19.807c14.812,10.992,32.466,13.377,30.05,33.265
		c7.449-9.856,2.639-26.226,2.639-26.226s4.426-5.667,10.943-6.672c6.518-1.006,11.043,4.139,11.043,4.139
		S345.851,437.6,348.953,441.12"/>
	<path fill="#1D1D1B" d="M310.232,436.595c-7.139-11.099-22.004-10.372-26.25-25.375c0,0-4.174,8.045-3.381,16.138
		c1.52,2.226,3.108,3.762,4.883,5.174c15.727,12.519,32.277,15.312,27.468,35.175C312.952,467.706,318.793,449.898,310.232,436.595"
		/>
</g>
</svg>
