<?xml version="1.0" encoding="utf-8"?>
<!-- Generator: Adobe Illustrator 16.0.0, SVG Export Plug-In . SVG Version: 6.00 Build 0)  -->
<!DOCTYPE svg PUBLIC "-//W3C//DTD SVG 1.1//EN" "http://www.w3.org/Graphics/SVG/1.1/DTD/svg11.dtd">
<svg version="1.1" id="Layer_1" xmlns="http://www.w3.org/2000/svg" xmlns:xlink="http://www.w3.org/1999/xlink" x="0px" y="0px"
	 width="127.56px" height="113.39px" viewBox="0 0 127.56 113.39" enable-background="new 0 0 127.56 113.39" xml:space="preserve">
<g>
	<path fill="#1D1D1B" d="M289.242,417.527c4.457-1.667,9.277-2.583,14.311-2.583c15.716,0,29.387,8.901,36.255,21.924
		c0.417-0.021,0.86-0.036,1.339-0.036c0.504,0,0.986,0.018,1.456,0.045c-7.069-14.443-21.916-24.416-39.05-24.416
		c-5.563,0-10.875,1.062-15.766,2.973C288.234,416.185,288.721,416.881,289.242,417.527"/>
	<path fill="#1D1D1B" d="M277.533,487.535c-9.125-7.52-14.951-18.902-14.951-31.622c0-2.524,0.242-4.993,0.682-7.394
		c-0.664-1.29-1.21-2.612-1.65-3.957c-0.979,3.621-1.515,7.424-1.515,11.351c0,13.832,6.505,26.165,16.608,34.129
		C276.969,489.212,277.246,488.375,277.533,487.535"/>
	<path fill="#1D1D1B" d="M342.854,444.37c1.078,3.663,1.666,7.535,1.666,11.543c0,22.59-18.377,40.968-40.967,40.968
		c-6.063,0-11.816-1.332-16.998-3.705c-0.719,0.547-1.425,1.129-2.115,1.748c5.77,2.84,12.258,4.44,19.113,4.44
		c23.959,0,43.45-19.492,43.45-43.451c0-4.294-0.634-8.44-1.801-12.36C344.352,443.771,343.568,444.043,342.854,444.37"/>
	<path fill="#1D1D1B" d="M348.953,441.12c-19.861,1.136-13.035,22.086-29.793,35.433c-10.145,8.074-31.863,5.847-43.453,26.381
		c0.776-8.691,6.791-26.189,12.918-32.862c5.523,0.043,9.386,3.172,9.621,3.364c-5.996-9.038-22.601-10.986-31.074-22.178
		c-9.422-12.447-3.891-28.945,0.467-36.623c3.531,9.285,9.154,15.275,15.263,19.807c14.812,10.992,32.466,13.377,30.05,33.265
		c7.449-9.856,2.639-26.226,2.639-26.226s4.426-5.667,10.943-6.672c6.518-1.006,11.043,4.139,11.043,4.139
		S345.851,437.6,348.953,441.12"/>
	<path fill="#1D1D1B" d="M310.232,436.595c-7.139-11.099-22.004-10.372-26.25-25.375c0,0-4.174,8.045-3.381,16.138
		c1.52,2.226,3.108,3.762,4.883,5.174c15.727,12.519,32.277,15.312,27.468,35.175C312.952,467.706,318.793,449.898,310.232,436.595"
		/>
</g>
<path fill="#232020" d="M47.435,98.811c2.264-5.236,1.258-11.554-3.013-15.826L21.259,59.817
	c4.104,12.613,10.513,23.329,19.087,31.904L47.435,98.811z"/>
<path fill="#232020" d="M86.102,28.583l23.164,23.164c-4.104-12.611-10.514-23.326-19.089-31.902l-7.089-7.089
	C80.826,17.99,81.83,24.311,86.102,28.583"/>
<path fill="#232020" d="M37.983,34.918l23.166-23.166c-12.611,4.106-23.328,10.514-31.902,19.09l-7.094,7.094
	c1.777,0.77,3.709,1.177,5.704,1.177C31.684,39.114,35.278,37.624,37.983,34.918"/>
<path fill="#232020" d="M92.54,76.646L69.373,99.813c12.612-4.105,23.329-10.515,31.903-19.091l7.094-7.094
	c-1.776-0.77-3.709-1.178-5.703-1.178C98.842,72.45,95.246,73.94,92.54,76.646"/>
<path fill="#232020" d="M41.705,38.64L79.058,1.284L64.213,5.347C48.765,9.574,35.747,16.899,25.525,27.121L14.009,38.64
	c3.824,3.822,8.835,5.734,13.848,5.734S37.881,42.462,41.705,38.64 M29.247,30.843c8.574-8.577,19.291-14.984,31.902-19.09
	L37.983,34.918c-2.705,2.705-6.299,4.195-10.126,4.195c-1.995,0-3.927-0.406-5.704-1.176L29.247,30.843z"/>
<path fill="#232020" d="M36.627,95.442l11.516,11.517c3.825-3.824,5.736-8.836,5.736-13.848c0-5.014-1.911-10.025-5.736-13.849
	L10.79,41.909l4.061,14.846C19.078,72.203,26.405,85.22,36.627,95.442 M44.422,82.984c4.271,4.272,5.276,10.59,3.013,15.826
	l-7.088-7.089c-8.574-8.575-14.984-19.291-19.087-31.904L44.422,82.984z"/>
<path fill="#232020" d="M102.667,67.189c-5.011,0-10.024,1.913-13.848,5.738L51.465,110.28l14.845-4.061
	c15.449-4.226,28.466-11.554,38.688-21.776l11.517-11.516c-1.911-1.912-4.121-3.347-6.479-4.303
	C107.68,67.668,105.173,67.189,102.667,67.189 M101.276,80.722c-8.574,8.576-19.291,14.985-31.903,19.091L92.54,76.646
	c2.706-2.706,6.302-4.196,10.127-4.196c1.994,0,3.927,0.408,5.703,1.178L101.276,80.722z"/>
<path fill="#232020" d="M82.38,32.302l37.354,37.354l-4.061-14.845c-4.227-15.448-11.556-28.466-21.776-38.688L82.38,4.606
	C74.731,12.255,74.731,24.653,82.38,32.302 M83.088,12.755l7.089,7.089c8.575,8.576,14.984,19.292,19.088,31.902L86.102,28.583
	C81.83,24.311,80.826,17.99,83.088,12.755"/>
</svg>
