<?xml version="1.0" encoding="utf-8"?>
<!-- Generator: Adobe Illustrator 16.0.0, SVG Export Plug-In . SVG Version: 6.00 Build 0)  -->
<!DOCTYPE svg PUBLIC "-//W3C//DTD SVG 1.1//EN" "http://www.w3.org/Graphics/SVG/1.1/DTD/svg11.dtd">
<svg version="1.1" id="Layer_1" xmlns="http://www.w3.org/2000/svg" xmlns:xlink="http://www.w3.org/1999/xlink" x="0px" y="0px"
	 width="127.56px" height="113.39px" viewBox="0 0 127.56 113.39" enable-background="new 0 0 127.56 113.39" xml:space="preserve">
<g>
	<path fill="#1D1D1B" d="M289.242,417.527c4.457-1.667,9.277-2.583,14.311-2.583c15.716,0,29.387,8.901,36.255,21.924
		c0.417-0.021,0.86-0.036,1.339-0.036c0.504,0,0.986,0.018,1.456,0.045c-7.069-14.443-21.916-24.416-39.05-24.416
		c-5.563,0-10.875,1.062-15.766,2.973C288.234,416.185,288.721,416.881,289.242,417.527"/>
	<path fill="#1D1D1B" d="M277.533,487.535c-9.125-7.52-14.951-18.902-14.951-31.622c0-2.524,0.242-4.993,0.682-7.394
		c-0.664-1.29-1.21-2.612-1.65-3.957c-0.979,3.621-1.515,7.424-1.515,11.351c0,13.832,6.505,26.165,16.608,34.129
		C276.969,489.212,277.246,488.375,277.533,487.535"/>
	<path fill="#1D1D1B" d="M342.854,444.37c1.078,3.663,1.666,7.535,1.666,11.543c0,22.59-18.377,40.968-40.967,40.968
		c-6.063,0-11.816-1.332-16.998-3.705c-0.719,0.547-1.425,1.129-2.115,1.748c5.77,2.84,12.258,4.44,19.113,4.44
		c23.959,0,43.45-19.492,43.45-43.451c0-4.294-0.634-8.44-1.801-12.36C344.352,443.771,343.568,444.043,342.854,444.37"/>
	<path fill="#1D1D1B" d="M348.953,441.12c-19.861,1.136-13.035,22.086-29.793,35.433c-10.145,8.074-31.863,5.847-43.453,26.381
		c0.776-8.691,6.791-26.189,12.918-32.862c5.523,0.043,9.386,3.172,9.621,3.364c-5.996-9.038-22.601-10.986-31.074-22.178
		c-9.422-12.447-3.891-28.945,0.467-36.623c3.531,9.285,9.154,15.275,15.263,19.807c14.812,10.992,32.466,13.377,30.05,33.265
		c7.449-9.856,2.639-26.226,2.639-26.226s4.426-5.667,10.943-6.672c6.518-1.006,11.043,4.139,11.043,4.139
		S345.851,437.6,348.953,441.12"/>
	<path fill="#1D1D1B" d="M310.232,436.595c-7.139-11.099-22.004-10.372-26.25-25.375c0,0-4.174,8.045-3.381,16.138
		c1.52,2.226,3.108,3.762,4.883,5.174c15.727,12.519,32.277,15.312,27.468,35.175C312.952,467.706,318.793,449.898,310.232,436.595"
		/>
</g>
<path fill="#010101" d="M17.714,107.298c0.288,0.241,0.612,0.408,0.973,0.504c0.36,0.097,0.715,0.145,1.064,0.145
	c0.408,0,0.79-0.08,1.144-0.242c0.354-0.163,0.664-0.382,0.929-0.658c0.264-0.276,0.472-0.592,0.623-0.946
	c0.149-0.354,0.225-0.729,0.225-1.127v-0.793h-1.839v0.631c0,0.253-0.037,0.464-0.108,0.631c-0.072,0.169-0.163,0.301-0.271,0.396
	c-0.121,0.098-0.25,0.166-0.387,0.207c-0.139,0.044-0.268,0.063-0.388,0.063c-0.422,0-0.712-0.126-0.874-0.378
	c-0.164-0.253-0.244-0.566-0.244-0.938v-6.56c0-0.433,0.075-0.791,0.225-1.072c0.15-0.281,0.454-0.425,0.91-0.425
	c0.349,0,0.625,0.133,0.829,0.397s0.307,0.576,0.307,0.937v0.613h1.839v-0.721c0-0.444-0.076-0.857-0.225-1.235
	c-0.151-0.378-0.358-0.705-0.623-0.981c-0.541-0.565-1.244-0.848-2.109-0.848c-0.445,0-0.851,0.075-1.216,0.226
	c-0.367,0.15-0.683,0.357-0.947,0.622c-0.265,0.264-0.469,0.576-0.612,0.937c-0.144,0.36-0.216,0.752-0.216,1.172v7.065
	c0,0.588,0.093,1.072,0.279,1.451C17.188,106.748,17.427,107.057,17.714,107.298"/>
<path fill="#010101" d="M32.259,107.152c0.288,0.266,0.616,0.464,0.982,0.596c0.366,0.133,0.736,0.198,1.109,0.198
	c0.372,0,0.742-0.065,1.108-0.198c0.366-0.132,0.7-0.33,1-0.596c0.289-0.251,0.523-0.569,0.703-0.954
	c0.18-0.385,0.271-0.847,0.271-1.388v-6.776c0-0.517-0.09-0.974-0.271-1.371c-0.18-0.396-0.414-0.727-0.703-0.989
	c-0.301-0.254-0.634-0.446-1-0.578c-0.367-0.133-0.736-0.198-1.108-0.198c-0.373,0-0.743,0.065-1.109,0.198
	c-0.367,0.132-0.694,0.324-0.982,0.578c-0.3,0.263-0.541,0.594-0.721,0.989c-0.18,0.397-0.271,0.854-0.271,1.371v6.776
	c0,0.541,0.091,1.003,0.271,1.388C31.718,106.583,31.959,106.901,32.259,107.152 M33.106,98.034c0-0.445,0.124-0.772,0.37-0.983
	c0.245-0.21,0.537-0.315,0.874-0.315c0.335,0,0.628,0.105,0.874,0.315c0.246,0.211,0.369,0.538,0.369,0.983v6.776
	c0,0.446-0.123,0.773-0.369,0.982c-0.246,0.211-0.539,0.315-0.874,0.315c-0.337,0-0.629-0.104-0.874-0.315
	c-0.246-0.209-0.37-0.536-0.37-0.982V98.034z"/>
<polygon fill="#010101" points="50.428,101.801 50.392,101.801 48.031,95.006 46.264,95.006 46.264,107.839 48.103,107.839 
	48.103,100.035 48.139,100.035 49.941,105.55 50.86,105.55 52.68,100.035 52.716,100.035 52.716,107.839 54.555,107.839 
	54.555,95.006 52.771,95.006 "/>
<path fill="#010101" d="M68.631,95.907c-0.313-0.336-0.66-0.571-1.045-0.704c-0.384-0.131-0.83-0.196-1.334-0.196h-2.757v12.832
	h1.838v-5.011h0.938c0.685,0,1.237-0.117,1.659-0.352c0.42-0.233,0.756-0.562,1.008-0.982c0.217-0.349,0.358-0.721,0.424-1.118
	c0.066-0.395,0.101-0.883,0.101-1.46c0-0.769-0.063-1.378-0.181-1.828C69.16,96.637,68.945,96.243,68.631,95.907 M67.703,99.818
	c-0.019,0.264-0.074,0.486-0.17,0.667c-0.098,0.192-0.248,0.342-0.451,0.45c-0.205,0.108-0.492,0.163-0.865,0.163h-0.884v-4.363
	h0.956c0.359,0,0.637,0.055,0.828,0.164c0.193,0.108,0.336,0.263,0.434,0.468c0.096,0.204,0.149,0.441,0.162,0.712
	c0.012,0.271,0.017,0.556,0.017,0.855C67.729,99.26,67.723,99.554,67.703,99.818"/>
<path fill="#010101" d="M79.41,95.007l-2.865,12.832h1.837l0.541-2.758h2.506l0.541,2.758h1.838l-2.866-12.832H79.41z
	 M79.248,103.351l0.9-4.65h0.037l0.901,4.65H79.248z"/>
<polygon fill="#010101" points="91.847,107.839 93.686,107.839 93.686,100.126 93.723,100.126 96.533,107.839 98.263,107.839 
	98.263,95.005 96.425,95.005 96.425,102.738 96.389,102.738 93.612,95.005 91.847,95.005 "/>
<polygon fill="#010101" points="108.843,107.839 110.683,107.839 110.683,102.413 113.205,95.005 111.259,95.005 109.78,100.106 
	109.745,100.106 108.268,95.005 106.32,95.005 108.843,102.413 "/>
<path fill="#010101" d="M80.819,49.579v12.476H49.32c-0.825,0-1.626-0.075-2.406-0.227c-0.111-0.023-0.223-0.048-0.334-0.071
	c-1.756-0.385-3.374-1.128-4.782-2.153c-3.191-2.332-5.273-6.093-5.273-10.336V6.086c6.329,3.602,10.39,10.395,10.39,17.843v20.432
	c0,4.033,3.276,7.31,7.309,7.31h21.484C77.694,51.671,79.501,50.872,80.819,49.579"/>
<path fill="#010101" d="M93.402,6.086V30.19c-2.237-3.307-5.737-5.723-9.882-6.512c-0.165-0.031-0.33-0.063-0.499-0.084
	C83.137,16.276,87.171,9.634,93.402,6.086"/>
<path fill="#9E1D20" d="M93.402,38.873v43.173c-6.326-3.603-10.384-10.395-10.384-17.843V43.772c0-4.029-3.282-7.31-7.312-7.31
	H54.223c-1.988,0-3.793,0.798-5.112,2.09V26.078h31.5c0.824,0,1.628,0.075,2.408,0.226C88.924,27.432,93.402,32.638,93.402,38.873"
	/>
<path fill="#9E1D20" d="M46.909,64.538c-0.116,7.318-4.148,13.96-10.384,17.508V57.932c0.989,1.462,2.236,2.763,3.699,3.829
	c1.738,1.271,3.687,2.148,5.781,2.608l0.071,0.018c0.111,0.022,0.223,0.044,0.331,0.066C46.57,64.483,46.74,64.515,46.909,64.538"/>
</svg>
