<?xml version="1.0" encoding="utf-8"?>
<!-- Generator: Adobe Illustrator 16.0.0, SVG Export Plug-In . SVG Version: 6.00 Build 0)  -->
<!DOCTYPE svg PUBLIC "-//W3C//DTD SVG 1.1//EN" "http://www.w3.org/Graphics/SVG/1.1/DTD/svg11.dtd">
<svg version="1.1" id="Layer_1" xmlns="http://www.w3.org/2000/svg" xmlns:xlink="http://www.w3.org/1999/xlink" x="0px" y="0px"
	 width="63.028px" height="89.789px" viewBox="0 0 63.028 89.789" enable-background="new 0 0 63.028 89.789" xml:space="preserve">
<g>
	<path fill="#FFFFFF" d="M54.312,33.616c0,13.234-10.139,23.961-22.646,23.961c-12.506,0-22.646-10.727-22.646-23.961
		S19.16,9.655,31.666,9.655C44.173,9.655,54.312,20.382,54.312,33.616"/>
	<path fill="#010101" d="M32.327,6.208c-14.93,0-27.032,12.103-27.032,27.032c0,12.14,8.002,22.41,19.018,25.826l5.666,9.81
		c0.946,1.642,3.315,1.642,4.262,0l5.582-9.663c11.281-3.25,19.537-13.645,19.537-25.973C59.359,18.311,47.257,6.208,32.327,6.208
		 M32.327,53.884c-11.401,0-20.643-9.243-20.643-20.644s9.242-20.643,20.643-20.643s20.644,9.242,20.644,20.643
		S43.728,53.884,32.327,53.884"/>
	<path fill="#010101" d="M38.287,81.77c0,2.986-2.421,5.407-5.407,5.407c-2.984,0-5.406-2.421-5.406-5.407
		c0-2.984,2.421-5.405,5.406-5.405C35.865,76.364,38.287,78.785,38.287,81.77"/>
	<path fill="#010101" d="M47.476,33.617c0,8.208-6.655,14.863-14.863,14.863S17.75,41.825,17.75,33.617s6.654-14.863,14.863-14.863
		S47.476,25.408,47.476,33.617"/>
</g>
</svg>
