<?xml version="1.0" encoding="utf-8"?>
<!-- Generator: Adobe Illustrator 16.0.0, SVG Export Plug-In . SVG Version: 6.00 Build 0)  -->
<!DOCTYPE svg PUBLIC "-//W3C//DTD SVG 1.1//EN" "http://www.w3.org/Graphics/SVG/1.1/DTD/svg11.dtd">
<svg version="1.1" id="Layer_1" xmlns="http://www.w3.org/2000/svg" xmlns:xlink="http://www.w3.org/1999/xlink" x="0px" y="0px"
	 width="60.211px" height="88.028px" viewBox="0 0 60.211 88.028" enable-background="new 0 0 60.211 88.028" xml:space="preserve">
<path fill="#010101" d="M51.76,32.443c0,13.12-10.051,23.752-22.45,23.752c-12.397,0-22.448-10.633-22.448-23.752
	S16.913,8.69,29.31,8.69C41.708,8.69,51.76,19.323,51.76,32.443"/>
<path fill="#35A1A9" d="M29.965,5.273c-14.8,0-26.797,11.998-26.797,26.797c0,12.033,7.932,22.214,18.854,25.6l5.616,9.727
	c0.939,1.626,3.287,1.626,4.227,0l5.531-9.581c11.184-3.221,19.369-13.523,19.369-25.745C56.764,17.271,44.766,5.273,29.965,5.273
	 M29.965,52.534c-11.301,0-20.464-9.162-20.464-20.464c0-11.303,9.163-20.464,20.464-20.464c11.302,0,20.463,9.161,20.463,20.464
	C50.429,43.373,41.268,52.534,29.965,52.534"/>
<path fill="#35A1A9" d="M35.874,80.177c0,2.961-2.4,5.361-5.36,5.361c-2.959,0-5.358-2.4-5.358-5.361
	c0-2.96,2.399-5.358,5.358-5.358C33.474,74.818,35.874,77.217,35.874,80.177"/>
<path fill="#35A1A9" d="M44.983,32.444c0,8.136-6.596,14.734-14.734,14.734c-8.138,0-14.734-6.598-14.734-14.734
	c0-8.138,6.596-14.734,14.734-14.734C38.387,17.71,44.983,24.306,44.983,32.444"/>
</svg>
