<?xml version="1.0" encoding="utf-8"?>
<!-- Generator: Adobe Illustrator 16.0.0, SVG Export Plug-In . SVG Version: 6.00 Build 0)  -->
<!DOCTYPE svg PUBLIC "-//W3C//DTD SVG 1.1//EN" "http://www.w3.org/Graphics/SVG/1.1/DTD/svg11.dtd">
<svg version="1.1" id="Layer_1" xmlns="http://www.w3.org/2000/svg" xmlns:xlink="http://www.w3.org/1999/xlink" x="0px" y="0px"
	 width="300px" height="300px" viewBox="0 0 300 300" enable-background="new 0 0 300 300" xml:space="preserve">
<g>
	<path fill-rule="evenodd" clip-rule="evenodd" d="M232.104,277c-2.896,0-5.793,0-8.689,0c-14.03-3.82-24.511-11.534-26.727-26.762
		c-0.829-5.691,0.53-11.699,0.89-17.542c-26.714,0-53.79,0-80.292,0c0.381,6.08,1.685,11.886,0.911,17.398
		c-2.141,15.26-12.608,22.971-26.575,26.905c-2.896,0-5.793,0-8.689,0c-8.34-3.195-16.347-6.702-21.441-14.791
		c-9.589-15.227-5.374-31.286,12.415-45.188C63.389,159.463,52.84,101.715,42.203,43.492c-8.033,0-15.49-0.269-22.917,0.086
		c-5.975,0.284-10.277-1.779-13.114-6.992c0-3.863,0-7.724,0-11.586c14.966,0,29.931,0,44.896,0
		c5.015,2.314,7.472,6.287,8.237,11.722c0.905,6.437,2.536,12.778,3.3,19.226c0.511,4.31,2.447,5.363,6.539,5.598
		c71.224,4.084,142.443,8.24,213.639,12.766c4.451,0.283,8.7,3.741,13.043,5.723c0,1.93,0,3.862,0,5.793
		c-0.516,1.578-1.22,3.123-1.519,4.742c-4.544,24.66-8.95,49.346-13.566,73.994c-3.931,20.991-15.858,30.821-37.038,30.825
		c-48.752,0.007-97.506,0.002-146.258,0.002c-2.818,0-5.636,0-9.232,0c1.297,6.895,2.392,12.717,3.579,19.029
		c3.392,0,6.258,0,9.126,0c41.995,0.003,83.989-0.095,125.983,0.06c15.983,0.06,28.588,10.944,30.988,26.059
		c2.396,15.081-6.383,29.331-21.274,34.584C235.082,275.662,233.605,276.369,232.104,277z M67.051,79.496
		c1.535,8.503,2.718,16.095,4.409,23.573c0.35,1.549,2.557,3.786,3.953,3.82c12.444,0.299,24.898,0.174,37.963,0.174
		c-0.614-7.223-1.116-14.599-1.988-21.931c-0.145-1.222-1.833-3.16-2.916-3.236C94.852,80.941,81.211,80.269,67.051,79.496z
		 M223.639,88.581c-15.713-0.928-30.667-1.81-46.041-2.718c0,8.381,0,15.93,0,25.489c13.654,0,27.023,0.115,40.385-0.192
		c1.214-0.028,3.12-2.628,3.413-4.264C222.407,101.245,222.846,95.493,223.639,88.581z M164.883,108.829c0-7.277,0-15.076,0-23.724
		c-13.716-0.784-27.447-1.569-41.645-2.38c0.698,7.944,1.51,14.637,1.791,21.352c0.165,3.943,2.06,4.813,5.475,4.786
		C141.797,108.772,153.092,108.829,164.883,108.829z M74.477,119.951c1.048,5.998,1.919,11.918,3.21,17.744
		c0.345,1.562,1.942,4.035,3.015,4.061c11.86,0.293,23.729,0.184,36.079,0.184c-0.751-7.57-1.43-14.405-2.183-21.989
		C101.071,119.951,88.18,119.951,74.477,119.951z M275.947,91.636c-13.656-0.775-26.742-1.518-40.377-2.292
		c-0.87,7.689-1.662,14.69-2.678,23.663c12.528,0,24.023,0.129,35.508-0.161c1.45-0.037,3.723-2.041,4.107-3.526
		C273.945,103.781,274.756,98.079,275.947,91.636z M219.363,123.167c-14.347,0-28.087,0-41.564,0c0,6.82,0,13.426,0,20.891
		c12.1,0,23.634,0.125,35.157-0.153c1.494-0.037,3.943-1.955,4.221-3.346C218.246,135.198,218.61,129.694,219.363,123.167z
		 M119.988,176.897c-0.731-7.674-1.405-14.751-2.128-22.343c-12.579,0-24.469,0-37.027,0c1.351,7.551,2.646,14.788,3.998,22.343
		C96.487,176.897,107.684,176.897,119.988,176.897z M126.837,121.445c0.657,6.876,1.312,13.719,2.025,21.184
		c12.443,0,24.303,0,36.055,0c0-7.073,0-13.703,0-21.184C152.095,121.445,139.719,121.445,126.837,121.445z M177.397,176.686
		c12.23,0,23.84,0,35.587,0c0.77-6.991,1.471-13.381,2.26-20.564c-13.072,0-25.367,0-37.847,0
		C177.397,163.083,177.397,169.545,177.397,176.686z M269.211,124.538c-12.789,0-25.153,0-37.984,0
		c-0.704,6.51-1.385,12.801-2.104,19.437c6.942,0.308,12.923,0.715,18.91,0.814c18.271,0.304,18.274,0.259,21.359-17.644
		C269.47,126.69,269.336,126.197,269.211,124.538z M130.01,155.231c0.763,7.645,1.462,14.664,2.142,21.474
		c11.538,0,22.198,0,32.642,0c0-7.438,0-14.265,0-21.474C153.198,155.231,142.179,155.231,130.01,155.231z M263.411,157.178
		c-12.336,0-24.102,0-36.063,0c-0.456,3.777-0.83,6.856-1.196,9.936c-0.382,3.201-0.756,6.403-1.202,10.193c6.35,0,11.83,0,17.311,0
		C257.423,177.307,261.902,173.129,263.411,157.178z M227.248,258.477c7.008-0.04,12.973-5.815,13.159-12.742
		c0.189-7.062-6.129-13.458-13.278-13.445c-6.894,0.013-12.905,5.929-13.063,12.849
		C213.901,252.479,219.869,258.519,227.248,258.477z M87.498,258.467c7.132,0.095,12.939-5.406,13.205-12.507
		c0.274-7.318-5.648-13.606-12.87-13.668c-7.179-0.06-13.483,6.232-13.361,13.338C74.591,252.6,80.45,258.373,87.498,258.467z"/>
</g>
</svg>
