<?xml version="1.0" encoding="utf-8"?>
<!-- Generator: Adobe Illustrator 16.0.0, SVG Export Plug-In . SVG Version: 6.00 Build 0)  -->
<!DOCTYPE svg PUBLIC "-//W3C//DTD SVG 1.1//EN" "http://www.w3.org/Graphics/SVG/1.1/DTD/svg11.dtd">
<svg version="1.1" id="Layer_1" xmlns="http://www.w3.org/2000/svg" xmlns:xlink="http://www.w3.org/1999/xlink" x="0px" y="0px"
	 width="206.826px" height="74.062px" viewBox="0 0 206.826 74.062" enable-background="new 0 0 206.826 74.062"
	 xml:space="preserve">
<rect x="-57.337" y="137.149" fill="#151313" width="274.403" height="191.126"/>
<path fill="#FFFFFF" d="M102.734,3.499c-19.886,0-34.799,13.901-34.799,32.682c0,18.873,14.913,33.051,34.799,33.051
	c19.977,0,34.891-14.27,34.891-33.051C137.625,17.493,122.71,3.499,102.734,3.499 M102.917,55.514
	c-9.852,0-18.229-8.378-18.229-19.242c0-10.862,8.286-19.056,18.229-19.056c9.941,0,17.86,8.193,17.86,19.056
	C120.778,47.136,112.859,55.514,102.917,55.514"/>
<polygon fill="#FFFFFF" points="174.786,34.799 196.051,4.051 176.81,4.051 164.382,22.832 151.954,4.051 132.898,4.051 
	154.44,35.537 131.425,68.494 150.481,68.494 164.382,47.964 178.284,68.494 197.892,68.494 "/>
<path fill="#FFFFFF" d="M53.465,4.044L37.858,51.457L22.25,4.044H5.413l19.854,60.287c1.403,4.06,2.18,4.206,6.176,4.206h6.414
	h0.002h6.414c3.996,0,4.772-0.146,6.176-4.206L70.303,4.044H53.465z"/>
</svg>
