<?xml version="1.0" encoding="UTF-8"?>
<svg width="143px" height="74px" viewBox="0 0 143 74" version="1.1" xmlns="http://www.w3.org/2000/svg" xmlns:xlink="http://www.w3.org/1999/xlink">
    <title>Vox_Catalog_Logo_v1r0</title>
    <g id="Page-1" stroke="none" stroke-width="1" fill="none" fill-rule="evenodd">
        <g id="Group-338">
            <path d="M72.5986,38.832 C65.3386,38.832 59.1626,32.657 59.1626,24.649 C59.1626,16.644 65.2706,10.603 72.5986,10.603 C79.9276,10.603 85.7626,16.644 85.7626,24.649 C85.7626,32.657 79.9276,38.832 72.5986,38.832 M72.4626,0.493 C57.8066,0.493 46.8136,10.739 46.8136,24.582 C46.8136,38.492 57.8066,48.942 72.4626,48.942 C87.1876,48.942 98.1796,38.425 98.1796,24.582 C98.1796,10.808 87.1876,0.493 72.4626,0.493" id="Fill-307" fill="#24201F"></path>
            <polygon id="Fill-308" fill="#24201F" points="125.5703 23.5645 141.2443 0.9005 127.0633 0.9005 117.9023 14.7435 108.7413 0.9005 94.6953 0.9005 110.5743 24.1075 93.6103 48.3995 107.6563 48.3995 117.9023 33.2675 128.1493 48.3995 142.6023 48.3995"></polygon>
            <path d="M36.1494,0.8955 L24.6454,35.8415 L13.1414,0.8955 L0.7304,0.8955 L15.3654,45.3315 C16.3994,48.3235 16.9714,48.4305 19.9164,48.4305 L24.6444,48.4305 L24.6454,48.4305 L29.3744,48.4305 C32.3184,48.4305 32.8914,48.3235 33.9254,45.3315 L48.5594,0.8955 L36.1494,0.8955 Z" id="Fill-309" fill="#24201F"></path>
            <path d="M6.0239,72.5615 C4.3559,71.6655 3.0449,70.4205 2.0899,68.8315 C1.1359,67.2405 0.6589,65.4415 0.6589,63.4355 C0.6589,61.4305 1.1359,59.6315 2.0899,58.0415 C3.0449,56.4515 4.3559,55.2075 6.0239,54.3095 C7.6909,53.4145 9.5669,52.9655 11.6499,52.9655 C13.4039,52.9655 14.9909,53.2735 16.4079,53.8905 C17.8249,54.5085 19.0159,55.3955 19.9799,56.5515 L16.9719,59.3285 C15.6029,57.7485 13.9059,56.9575 11.8809,56.9575 C10.6279,56.9575 9.5089,57.2315 8.5259,57.7825 C7.5429,58.3315 6.7759,59.0975 6.2269,60.0805 C5.6769,61.0645 5.4019,62.1825 5.4019,63.4355 C5.4019,64.6895 5.6769,65.8075 6.2269,66.7905 C6.7759,67.7755 7.5429,68.5405 8.5259,69.0905 C9.5089,69.6405 10.6279,69.9155 11.8809,69.9155 C13.9059,69.9155 15.6029,69.1155 16.9719,67.5135 L19.9799,70.2905 C19.0159,71.4675 17.8199,72.3645 16.3939,72.9805 C14.9659,73.5985 13.3759,73.9065 11.6209,73.9065 C9.5569,73.9065 7.6909,73.4575 6.0239,72.5615" id="Fill-310" fill="#757679"></path>
            <path d="M34.5864,65.6641 L31.3764,57.9121 L28.1654,65.6641 L34.5864,65.6641 Z M36.0614,69.2221 L26.6614,69.2221 L24.8684,73.5601 L20.0664,73.5601 L29.0904,53.3121 L33.7184,53.3121 L42.7724,73.5601 L37.8554,73.5601 L36.0614,69.2221 Z" id="Fill-311" fill="#757679"></path>
            <polygon id="Fill-312" fill="#757679" points="48.0659 57.1299 41.5869 57.1299 41.5869 53.3129 59.2309 53.3129 59.2309 57.1299 52.7519 57.1299 52.7519 73.5599 48.0659 73.5599"></polygon>
            <path d="M72.5942,65.6641 L69.3832,57.9121 L66.1732,65.6641 L72.5942,65.6641 Z M74.0692,69.2221 L64.6692,69.2221 L62.8752,73.5601 L58.0732,73.5601 L67.0982,53.3121 L71.7262,53.3121 L80.7802,73.5601 L75.8622,73.5601 L74.0692,69.2221 Z" id="Fill-313" fill="#757679"></path>
            <polygon id="Fill-314" fill="#757679" points="82.8911 53.3125 87.5771 53.3125 87.5771 69.7425 97.7291 69.7425 97.7291 73.5595 82.8911 73.5595"></polygon>
            <path d="M113.0591,69.0908 C114.0221,68.5408 114.7801,67.7758 115.3301,66.7908 C115.8791,65.8078 116.1541,64.6898 116.1541,63.4358 C116.1541,62.1828 115.8791,61.0648 115.3301,60.0798 C114.7801,59.0978 114.0221,58.3308 113.0591,57.7818 C112.0941,57.2318 111.0151,56.9568 109.8191,56.9568 C108.6231,56.9568 107.5441,57.2318 106.5801,57.7818 C105.6151,58.3308 104.8581,59.0978 104.3091,60.0798 C103.7591,61.0648 103.4851,62.1828 103.4851,63.4358 C103.4851,64.6898 103.7591,65.8078 104.3091,66.7908 C104.8581,67.7758 105.6151,68.5408 106.5801,69.0908 C107.5441,69.6408 108.6231,69.9148 109.8191,69.9148 C111.0151,69.9148 112.0941,69.6408 113.0591,69.0908 M104.1351,72.5468 C102.4481,71.6418 101.1271,70.3928 100.1731,68.8018 C99.2191,67.2098 98.7411,65.4218 98.7411,63.4358 C98.7411,61.4498 99.2191,59.6608 100.1731,58.0698 C101.1271,56.4798 102.4481,55.2318 104.1351,54.3248 C105.8231,53.4188 107.7171,52.9658 109.8191,52.9658 C111.9211,52.9658 113.8111,53.4188 115.4881,54.3248 C117.1661,55.2318 118.4871,56.4798 119.4511,58.0698 C120.4151,59.6608 120.8971,61.4498 120.8971,63.4358 C120.8971,65.4218 120.4151,67.2098 119.4511,68.8018 C118.4871,70.3928 117.1661,71.6418 115.4881,72.5468 C113.8111,73.4538 111.9211,73.9058 109.8191,73.9058 C107.7171,73.9058 105.8231,73.4538 104.1351,72.5468" id="Fill-315" fill="#757679"></path>
            <path d="M138.1079,63.1172 L142.3879,63.1172 L142.3879,71.3332 C141.2889,72.1612 140.0169,72.7992 138.5709,73.2412 C137.1239,73.6842 135.6679,73.9062 134.2029,73.9062 C132.1009,73.9062 130.2109,73.4582 128.5339,72.5612 C126.8559,71.6652 125.5399,70.4212 124.5859,68.8312 C123.6309,67.2402 123.1539,65.4412 123.1539,63.4352 C123.1539,61.4302 123.6309,59.6322 124.5859,58.0422 C125.5399,56.4512 126.8659,55.2072 128.5629,54.3092 C130.2589,53.4142 132.1679,52.9662 134.2899,52.9662 C136.0639,52.9662 137.6729,53.2642 139.1199,53.8622 C140.5659,54.4602 141.7809,55.3282 142.7649,56.4652 L139.7559,59.2412 C138.3099,57.7202 136.5649,56.9572 134.5209,56.9572 C133.2289,56.9572 132.0819,57.2272 131.0789,57.7662 C130.0759,58.3062 129.2949,59.0682 128.7359,60.0522 C128.1759,61.0362 127.8979,62.1632 127.8979,63.4352 C127.8979,64.6892 128.1759,65.8072 128.7359,66.7912 C129.2949,67.7752 130.0709,68.5412 131.0649,69.0912 C132.0579,69.6402 133.1909,69.9152 134.4629,69.9152 C135.8129,69.9152 137.0269,69.6252 138.1079,69.0482 L138.1079,63.1172 Z" id="Fill-316" fill="#757679"></path>
        </g>
    </g>
</svg>