<?xml version="1.0" encoding="utf-8"?>
<!-- Generator: Adobe Illustrator 16.0.0, SVG Export Plug-In . SVG Version: 6.00 Build 0)  -->
<!DOCTYPE svg PUBLIC "-//W3C//DTD SVG 1.1//EN" "http://www.w3.org/Graphics/SVG/1.1/DTD/svg11.dtd">
<svg version="1.1" id="Layer_1" xmlns="http://www.w3.org/2000/svg" xmlns:xlink="http://www.w3.org/1999/xlink" x="0px" y="0px"
	 width="300px" height="300px" viewBox="0 0 300 300" enable-background="new 0 0 300 300" xml:space="preserve">
<path fill="#FFFFFF" d="M235.338,67.143c0.451,2.138,0.697,4.352,0.697,6.625v137.145c0,17.649-14.308,31.956-31.956,31.956H66.934
	c-0.214,0-0.421-0.027-0.635-0.032c3.052,14.469,15.883,25.331,31.259,25.331h137.145c17.649,0,31.956-14.308,31.956-31.956V99.066
	C266.659,81.632,252.691,67.483,235.338,67.143z"/>
<path fill="#FFFFFF" d="M219.36,51.165c-3.052-14.468-15.884-25.331-31.26-25.331H50.956C33.307,25.833,19,40.141,19,57.79v137.145
	c0,17.435,13.968,31.583,31.321,31.923c0.213,0.006,0.42,0.033,0.635,0.033h137.145c17.649,0,31.956-14.308,31.956-31.956V57.79
	C220.057,55.517,219.812,53.302,219.36,51.165z"/>
</svg>
