<?xml version="1.0" encoding="utf-8"?>
<!-- Generator: Adobe Illustrator 16.0.0, SVG Export Plug-In . SVG Version: 6.00 Build 0)  -->
<!DOCTYPE svg PUBLIC "-//W3C//DTD SVG 1.1//EN" "http://www.w3.org/Graphics/SVG/1.1/DTD/svg11.dtd">
<svg version="1.1" id="Layer_1" xmlns="http://www.w3.org/2000/svg" xmlns:xlink="http://www.w3.org/1999/xlink" x="0px" y="0px"
	 width="414.676px" height="88.057px" viewBox="0 0 414.676 88.057" enable-background="new 0 0 414.676 88.057"
	 xml:space="preserve">
<path fill="#010101" d="M400.878,79.794H16.555c-2.75,0-5-2.25-5-5V12.469c0-2.75,2.25-5,5-5h384.323c2.75,0,5,2.25,5,5v62.325
	C405.878,77.544,403.628,79.794,400.878,79.794"/>
<path fill="none" stroke="#FFFFFF" stroke-miterlimit="10" d="M400.878,79.794H16.555c-2.75,0-5-2.25-5-5V12.469c0-2.75,2.25-5,5-5
	h384.323c2.75,0,5,2.25,5,5v62.325C405.878,77.544,403.628,79.794,400.878,79.794z"/>
<text transform="matrix(1 0 0 1 32.96 28.3843)"><tspan x="0" y="0" fill="#FFFFFF" font-family="'Montserrat-Light'" font-size="6">P</tspan><tspan x="4.134" y="0" fill="#FFFFFF" font-family="'Montserrat-Light'" font-size="6">r</tspan><tspan x="6.42" y="0" fill="#FFFFFF" font-family="'Montserrat-Light'" font-size="6">odu</tspan><tspan x="18.204" y="0" fill="#FFFFFF" font-family="'Montserrat-Light'" font-size="6">c</tspan><tspan x="21.569" y="0" fill="#FFFFFF" font-family="'Montserrat-Light'" font-size="6">tion </tspan><tspan x="34.823" y="0" fill="#FFFFFF" font-family="'Montserrat-Light'" font-size="6">T</tspan><tspan x="38.123" y="0" fill="#FFFFFF" font-family="'Montserrat-Light'" font-size="6">ime</tspan></text>
<text transform="matrix(1 0 0 1 32.96 35.5845)"><tspan x="0" y="0" fill="#FFFFFF" font-family="'Montserrat-Black'" font-size="6">Sta</tspan><tspan x="10.536" y="0" fill="#FFFFFF" font-family="'Montserrat-Black'" font-size="6">n</tspan><tspan x="14.802" y="0" fill="#FFFFFF" font-family="'Montserrat-Black'" font-size="6">da</tspan><tspan x="22.866" y="0" fill="#FFFFFF" font-family="'Montserrat-Black'" font-size="6">r</tspan><tspan x="25.578" y="0" fill="#FFFFFF" font-family="'Montserrat-Black'" font-size="6">d         d</tspan><tspan x="50.237" y="0" fill="#FFFFFF" font-family="'Montserrat-Black'" font-size="6">a</tspan><tspan x="54.011" y="0" fill="#FFFFFF" font-family="'Montserrat-Black'" font-size="6">y</tspan><tspan x="57.821" y="0" fill="#FFFFFF" font-family="'Montserrat-Black'" font-size="6">s</tspan></text>
<g>
	<defs>
		<rect id="SVGID_1_" x="-558.349" y="-710.685" width="1000" height="1280"/>
	</defs>
	<clipPath id="SVGID_2_">
		<use xlink:href="#SVGID_1_"  overflow="visible"/>
	</clipPath>
	<line clip-path="url(#SVGID_2_)" fill="#BCBCBB" x1="62.939" y1="37.111" x2="77.939" y2="37.111"/>
	
		<line clip-path="url(#SVGID_2_)" fill="none" stroke="#FFFFFF" stroke-width="0.5" stroke-linecap="round" stroke-linejoin="round" stroke-miterlimit="10" x1="62.939" y1="37.111" x2="77.939" y2="37.111"/>
</g>
<text transform="matrix(1 0 0 1 67.4033 35.3423)" fill="#35A1A9" font-family="'Montserrat-ExtraBold'" font-size="6">15</text>
<text transform="matrix(1 0 0 1 323.8857 45.3804)"><tspan x="0" y="0" fill="#FFFFFF" font-family="'Montserrat-ExtraLightItalic'" font-size="6">(</tspan><tspan x="1.89" y="0" fill="#FFFFFF" font-family="'Montserrat-ExtraLightItalic'" font-size="6">$</tspan><tspan x="5.46" y="0" fill="#FFFFFF" font-family="'Montserrat-ExtraLightItalic'" font-size="6">1</tspan><tspan x="7.542" y="0" fill="#FFFFFF" font-family="'Montserrat-ExtraLightItalic'" font-size="6">8</tspan><tspan x="11.363" y="0" fill="#FFFFFF" font-family="'Montserrat-ExtraLightItalic'" font-size="6">.</tspan><tspan x="12.449" y="0" fill="#FFFFFF" font-family="'Montserrat-ExtraLightItalic'" font-size="6">09 per unit)</tspan></text>
<text transform="matrix(1 0 0 1 271.4268 34.562)"><tspan x="0" y="0" fill="#FFFFFF" font-family="'Montserrat-Black'" font-size="12">Pri</tspan><tspan x="18.3" y="0" fill="#FFFFFF" font-family="'Montserrat-Black'" font-size="12">c</tspan><tspan x="25.632" y="0" fill="#FFFFFF" font-family="'Montserrat-Black'" font-size="12">e:</tspan></text>
<g>
	<defs>
		<rect id="SVGID_3_" x="-558.349" y="-710.685" width="1000" height="1280"/>
	</defs>
	<clipPath id="SVGID_4_">
		<use xlink:href="#SVGID_3_"  overflow="visible"/>
	</clipPath>
	<line clip-path="url(#SVGID_4_)" fill="#BCBCBB" x1="313.077" y1="37.517" x2="383.077" y2="37.517"/>
	
		<line clip-path="url(#SVGID_4_)" fill="none" stroke="#FFFFFF" stroke-linecap="round" stroke-linejoin="round" stroke-miterlimit="10" x1="313.077" y1="37.517" x2="383.077" y2="37.517"/>
</g>
<text transform="matrix(1 0 0 1 324.626 29.9839)" fill="#35A1A9" font-family="'Montserrat-ExtraBold'" font-size="6.996">$</text>
<text transform="matrix(1 0 0 1 329.1523 33.981)"><tspan x="0" y="0" fill="#35A1A9" font-family="'Montserrat-ExtraBold'" font-size="12">1</tspan><tspan x="4.86" y="0" fill="#35A1A9" font-family="'Montserrat-ExtraBold'" font-size="12">,</tspan><tspan x="8.376" y="0" fill="#35A1A9" font-family="'Montserrat-ExtraBold'" font-size="12">827</tspan></text>
<text transform="matrix(1 0 0 1 360.3154 29.9839)"><tspan x="0" y="0" fill="#35A1A9" font-family="'Montserrat-ExtraBold'" font-size="6.996">.</tspan><tspan x="1.889" y="0" fill="#35A1A9" font-family="'Montserrat-ExtraBold'" font-size="6.996">09</tspan></text>
<g>
	<defs>
		<rect id="SVGID_5_" x="-558.349" y="-710.685" width="1000" height="1280"/>
	</defs>
	<clipPath id="SVGID_6_">
		<use xlink:href="#SVGID_5_"  overflow="visible"/>
	</clipPath>
	<path clip-path="url(#SVGID_6_)" fill="#35A1A9" d="M376.077,67.196h-56c-1.1,0-2-0.9-2-2v-8c0-1.1,0.9-2,2-2h56c1.101,0,2,0.9,2,2
		v8C378.077,66.295,377.178,67.196,376.077,67.196"/>
</g>
<text transform="matrix(1 0 0 1 326.0146 62.9419)"><tspan x="0" y="0" fill="#010101" font-family="'Montserrat-ExtraBold'" font-size="6">ADD </tspan><tspan x="16.374" y="0" fill="#010101" font-family="'Montserrat-ExtraBold'" font-size="6">T</tspan><tspan x="20.13" y="0" fill="#010101" font-family="'Montserrat-ExtraBold'" font-size="6">O </tspan><tspan x="26.951" y="0" fill="#010101" font-family="'Montserrat-ExtraBold'" font-size="6">C</tspan><tspan x="31.308" y="0" fill="#010101" font-family="'Montserrat-ExtraBold'" font-size="6">A</tspan><tspan x="36.023" y="0" fill="#010101" font-family="'Montserrat-ExtraBold'" font-size="6">R</tspan><tspan x="40.409" y="0" fill="#010101" font-family="'Montserrat-ExtraBold'" font-size="6">T</tspan></text>
<text transform="matrix(1 0 0 1 33.2754 59.894)"><tspan x="0" y="0" fill="#FFFFFF" font-family="'Montserrat-MediumItalic'" font-size="6">* </tspan><tspan x="4.014" y="0" fill="#FFFFFF" font-family="'Montserrat-MediumItalic'" font-size="6">E</tspan><tspan x="7.979" y="0" fill="#FFFFFF" font-family="'Montserrat-MediumItalic'" font-size="6">v</tspan><tspan x="11.244" y="0" fill="#FFFFFF" font-family="'Montserrat-MediumItalic'" font-size="6">e</tspan><tspan x="14.91" y="0" fill="#FFFFFF" font-family="'Montserrat-MediumItalic'" font-size="6">r</tspan><tspan x="17.46" y="0" fill="#FFFFFF" font-family="'Montserrat-MediumItalic'" font-size="6">y o</tspan><tspan x="26.237" y="0" fill="#FFFFFF" font-family="'Montserrat-MediumItalic'" font-size="6">r</tspan><tspan x="28.626" y="0" fill="#FFFFFF" font-family="'Montserrat-MediumItalic'" font-size="6">der is bei</tspan><tspan x="56.184" y="0" fill="#FFFFFF" font-family="'Montserrat-MediumItalic'" font-size="6">n</tspan><tspan x="60.281" y="0" fill="#FFFFFF" font-family="'Montserrat-MediumItalic'" font-size="6">g </tspan><tspan x="66.035" y="0" fill="#FFFFFF" font-family="'Montserrat-MediumItalic'" font-size="6">r</tspan><tspan x="68.429" y="0" fill="#FFFFFF" font-family="'Montserrat-MediumItalic'" font-size="6">e</tspan><tspan x="72.035" y="0" fill="#FFFFFF" font-family="'Montserrat-MediumItalic'" font-size="6">vi</tspan><tspan x="77.063" y="0" fill="#FFFFFF" font-family="'Montserrat-MediumItalic'" font-size="6">e</tspan><tspan x="80.675" y="0" fill="#FFFFFF" font-family="'Montserrat-MediumItalic'" font-size="6">w</tspan><tspan x="85.997" y="0" fill="#FFFFFF" font-family="'Montserrat-MediumItalic'" font-size="6">ed </tspan><tspan x="95.368" y="0" fill="#FFFFFF" font-family="'Montserrat-MediumItalic'" font-size="6">b</tspan><tspan x="99.377" y="0" fill="#FFFFFF" font-family="'Montserrat-MediumItalic'" font-size="6">y a hu</tspan><tspan x="118.198" y="0" fill="#FFFFFF" font-family="'Montserrat-MediumItalic'" font-size="6">m</tspan><tspan x="124.553" y="0" fill="#FFFFFF" font-family="'Montserrat-MediumItalic'" font-size="6">an as soon </tspan></text>
<text transform="matrix(1 0 0 1 33.2754 67.0942)"><tspan x="0" y="0" fill="#FFFFFF" font-family="'Montserrat-MediumItalic'" font-size="6">as t</tspan><tspan x="11.196" y="0" fill="#FFFFFF" font-family="'Montserrat-MediumItalic'" font-size="6">h</tspan><tspan x="15.3" y="0" fill="#FFFFFF" font-family="'Montserrat-MediumItalic'" font-size="6">e logo is uploaded </tspan><tspan x="73.115" y="0" fill="#FFFFFF" font-family="'Montserrat-MediumItalic'" font-size="6">t</tspan><tspan x="75.497" y="0" fill="#FFFFFF" font-family="'Montserrat-MediumItalic'" font-size="6">o t</tspan><tspan x="83.404" y="0" fill="#FFFFFF" font-family="'Montserrat-MediumItalic'" font-size="6">h</tspan><tspan x="87.509" y="0" fill="#FFFFFF" font-family="'Montserrat-MediumItalic'" font-size="6">e p</tspan><tspan x="96.881" y="0" fill="#FFFFFF" font-family="'Montserrat-MediumItalic'" font-size="6">r</tspan><tspan x="99.274" y="0" fill="#FFFFFF" font-family="'Montserrat-MediumItalic'" font-size="6">odu</tspan><tspan x="111.238" y="0" fill="#FFFFFF" font-family="'Montserrat-MediumItalic'" font-size="6">c</tspan><tspan x="114.7" y="0" fill="#FFFFFF" font-family="'Montserrat-MediumItalic'" font-size="6">t</tspan><tspan x="117.244" y="0" fill="#FFFFFF" font-family="'Montserrat-MediumItalic'" font-size="6">.</tspan></text>
</svg>
