<?xml version="1.0" encoding="utf-8"?>
<!-- Generator: Adobe Illustrator 16.0.0, SVG Export Plug-In . SVG Version: 6.00 Build 0)  -->
<!DOCTYPE svg PUBLIC "-//W3C//DTD SVG 1.1//EN" "http://www.w3.org/Graphics/SVG/1.1/DTD/svg11.dtd">
<svg version="1.1" id="Layer_1" xmlns="http://www.w3.org/2000/svg" xmlns:xlink="http://www.w3.org/1999/xlink" x="0px" y="0px"
	 width="300px" height="300px" viewBox="0 0 300 300" enable-background="new 0 0 300 300" xml:space="preserve">
<path fill="#FFFFFF" d="M238.996,142.772c-2.739-2.734-3.11-18.696-8.894-20.394c-5.749,9.857,1.367,147.953-0.824,153.564
	c-1.642,13.138-80.068,29.427-153.973,8.472c-3.258-1.133-9.204-2.465-10.856-5.453c3.192-11.913,7.573-122.508,1.576-151.325
	c-2.795,4.127-4.915,9.06-8.376,12.808c0,0-30.383,2.46-51.323-19.705c0,0,13.957-36.545,18.886-46.814
	c2.277-7.375,5.601-14.681,9.723-21.202c7.487-11.839,17.651-16.67,30.927-19.943c36.543-9.354,40.863-17.565,51.734-22.083
	c3.695,5.334,17.631,9.008,26.688,9.852c20.94,2.056,39.054-10.539,39.419-10.264c3.283,2.468,9.042,6.445,12.727,8.213
	c15.512,7.454,33.392,8.045,48.599,16.299c0,0,20.381,5.055,32.289,47.346l16.427,41.875
	C293.745,124.018,275.813,147.159,238.996,142.772"/>
<path fill="none" stroke="#010101" stroke-width="0.12" stroke-miterlimit="10" d="M238.996,142.772
	c-2.739-2.734-3.11-18.696-8.894-20.394c-5.749,9.857,1.367,147.953-0.824,153.564c-1.642,13.138-80.068,29.427-153.973,8.472
	c-3.258-1.133-9.204-2.465-10.856-5.453c3.192-11.913,7.573-122.508,1.576-151.325c-2.795,4.127-4.915,9.06-8.376,12.808
	c0,0-30.383,2.46-51.323-19.705c0,0,13.957-36.545,18.886-46.814c2.277-7.375,5.601-14.681,9.723-21.202
	c7.487-11.839,17.651-16.67,30.927-19.943c36.543-9.354,40.863-17.565,51.734-22.083c3.695,5.334,17.631,9.008,26.688,9.852
	c20.94,2.056,39.054-10.539,39.419-10.264c3.283,2.468,9.042,6.445,12.727,8.213c15.512,7.454,33.392,8.045,48.599,16.299
	c0,0,20.381,5.055,32.289,47.346l16.427,41.875C293.745,124.018,275.813,147.159,238.996,142.772z"/>
<path fill="#FFFFFF" d="M50.259,37.797c0,0,17.57,56.087,15.766,89.84"/>
<path fill="none" stroke="#010101" stroke-width="0.12" stroke-miterlimit="10" d="M50.259,37.797c0,0,17.57,56.087,15.766,89.84"/>
<path fill="#FFFFFF" d="M248.988,36.564c0,0-19.298,57.071-18.886,85.814"/>
<path fill="none" stroke="#010101" stroke-width="0.12" stroke-miterlimit="10" d="M248.988,36.564c0,0-19.298,57.071-18.886,85.814
	"/>
<path fill="#FFFFFF" d="M237.08,136.338c0,0,32.437,4.106,54.199-20.116"/>
<path fill="none" stroke="#010101" stroke-width="0.12" stroke-miterlimit="10" d="M237.08,136.338c0,0,32.437,4.106,54.199-20.116"
	/>
<path fill="#FFFFFF" d="M9.61,111.292c0,0,6.566,20.122,51.729,23.405"/>
<path fill="none" stroke="#010101" stroke-width="0.12" stroke-miterlimit="10" d="M9.61,111.292c0,0,6.566,20.122,51.729,23.405"/>
<path fill="#FFFFFF" d="M65.039,271.013c0,0,92.384,37.778,165.47-1.229"/>
<path fill="none" stroke="#010101" stroke-width="0.12" stroke-miterlimit="10" d="M65.039,271.013c0,0,92.384,37.778,165.47-1.229"
	/>
<path fill="#E3E3E3" d="M139.33,191.523c13.987,20.04,50.143,44.055,53.615,39.603C196.675,226.338,160.671,215.649,139.33,191.523"
	/>
<path fill="#E3E3E3" d="M118.639,205.17c41.468,31.089,109.888,44.588,105.146,53.096
	C219.124,266.611,138.989,223.746,118.639,205.17"/>
<path fill="#E3E3E3" d="M116.225,251.501c23.679,10.663,58.169,16.488,59.938,11.329
	C177.931,257.677,150.45,263.211,116.225,251.501"/>
<path fill="#E3E3E3" d="M87.575,229.916c16.126,7.954,39.847,12.818,41.198,9.301C130.12,235.685,110.975,238.852,87.575,229.916"/>
<path fill="#E3E3E3" d="M80.312,205.002c10.582,10.109,27.816,19.68,29.727,17.265C111.945,219.858,96.301,217.647,80.312,205.002"
	/>
<path fill="#E5E5E5" d="M93.227,105.094c-1.149-6.89-15.832-12.996-13.402-18.111c2.795-6.109,19.715,11.095,22.922,13.865
	c-6.379-19.923-31.12-11.75-33.768-31.737c7.222,6.226,14.007,10.767,22.856,11.184c-0.478-11.557-19.13-11.245-25.763-17.621
	c-1.443-1.245-3.37-3.332-5.377-5.662c-2.008-2.338-4.102-4.915-5.875-6.942c0.513,1.207,1.021,2.528,1.52,3.845
	c0.514,1.37,1.982,4.602,3.304,7.931c0.452,1.136,0.89,2.28,1.266,3.367c0.895,2.602,1.596,5.04,2.155,7.105
	c0.63,2.325,1.088,4.188,1.449,5.298c1.006,3.095,0.731,5.677,1.332,12.411c0.33,3.769,1.662,8.213,2.313,13.011
	c2.053,15.098,1.509,24.518,1.393,33.387c-0.173,13.011,0.762,21.138,1.382,29.021c0.122,1.58,0.559,3.136,1.011,4.681
	c-2.612-25.158,3.492-35.841,1.027-47.536c1.169-0.3,4.391-2.33,5.565-2.633c-0.717-5.204-0.681-9.113-2.572-14.01
	c0,0,1.393,0.542,1.972,0.384C68.048,87.315,89.648,103.32,93.227,105.094"/>
<path fill="#E3E3E3" d="M246.758,66.309c-9.876,15.53-15.802,44.898-11.604,45.102C239.672,111.629,236.236,87.5,246.758,66.309"/>
<path fill="#E3E3E3" d="M247.077,47.827c0.158,22.82,14.186,47.167,9.779,48.802C252.521,98.232,245.949,60.192,247.077,47.827"/>
<path fill="#E3E3E3" d="M239.489,65.336c-14.617,9.952-28.721,27.948-25.402,30.843C217.406,99.066,221.106,81.059,239.489,65.336"
	/>
<path fill="#E3E3E3" d="M57.441,103.078c-8.086,4.404-17.804,15.822-16.015,16.925C43.353,121.189,47.698,109.802,57.441,103.078"/>
<path fill="#E3E3E3" d="M62.061,95.071c-5.464,10.023-5.23,24.081-7.553,23.728C52.221,118.448,58.569,100.207,62.061,95.071"/>
<path fill="#E3E3E3" d="M54.493,100.893c-8.808,0.808-19.344,5.268-18.592,7.334C36.654,110.298,42.636,103.312,54.493,100.893"/>
</svg>
