<?xml version="1.0" encoding="utf-8"?>
<!-- Generator: Adobe Illustrator 16.0.0, SVG Export Plug-In . SVG Version: 6.00 Build 0)  -->
<!DOCTYPE svg PUBLIC "-//W3C//DTD SVG 1.1//EN" "http://www.w3.org/Graphics/SVG/1.1/DTD/svg11.dtd">
<svg version="1.1" id="Layer_1" xmlns="http://www.w3.org/2000/svg" xmlns:xlink="http://www.w3.org/1999/xlink" x="0px" y="0px"
	 width="300px" height="300px" viewBox="0 0 300 300" enable-background="new 0 0 300 300" xml:space="preserve">
<path fill="#FFFFFF" d="M234.456,139.859c-2.604-2.601-2.956-17.771-8.458-19.385c-5.464,9.369,1.304,140.62-0.778,145.948
	c-1.561,12.492-76.101,27.97-146.342,8.058c-3.096-1.082-8.748-2.348-10.318-5.179c3.034-11.332,7.198-116.438,1.498-143.833
	c-2.657,3.925-4.671,8.613-7.961,12.175c0,0-28.877,2.343-48.779-18.728c0,0,13.265-34.734,17.95-44.495
	c2.164-7.009,5.323-13.953,9.241-20.153c7.115-11.253,16.776-15.842,29.394-18.953c34.731-8.891,38.843-16.694,49.17-20.989
	c3.512,5.075,16.757,8.563,25.365,9.369c19.902,1.949,37.114-10.021,37.466-9.76c3.12,2.345,8.589,6.123,12.096,7.806
	c14.743,7.084,31.736,7.647,46.189,15.492c0,0,19.371,4.804,30.689,45l15.612,39.799
	C286.491,122.032,269.448,144.026,234.456,139.859"/>
<path fill="none" stroke="#010101" stroke-width="0.12" stroke-miterlimit="10" d="M234.456,139.859
	c-2.604-2.601-2.956-17.771-8.458-19.385c-5.464,9.369,1.304,140.62-0.778,145.948c-1.561,12.492-76.101,27.97-146.342,8.058
	c-3.096-1.082-8.748-2.348-10.318-5.179c3.034-11.332,7.198-116.438,1.498-143.833c-2.657,3.925-4.671,8.613-7.961,12.175
	c0,0-28.877,2.343-48.779-18.728c0,0,13.265-34.734,17.95-44.495c2.164-7.009,5.323-13.953,9.241-20.153
	c7.115-11.253,16.776-15.842,29.394-18.953c34.731-8.891,38.843-16.694,49.17-20.989c3.512,5.075,16.757,8.563,25.365,9.369
	c19.902,1.949,37.114-10.021,37.466-9.76c3.12,2.345,8.589,6.123,12.096,7.806c14.743,7.084,31.736,7.647,46.189,15.492
	c0,0,19.371,4.804,30.689,45l15.612,39.799C286.491,122.032,269.448,144.026,234.456,139.859z"/>
<path fill="#FFFFFF" d="M55.072,40.084c0,0,16.699,53.308,14.984,85.388"/>
<path fill="none" stroke="#010101" stroke-width="0.12" stroke-miterlimit="10" d="M55.072,40.084c0,0,16.699,53.308,14.984,85.388"
	/>
<path fill="#FFFFFF" d="M243.953,38.913c0,0-18.342,54.243-17.955,81.564"/>
<path fill="none" stroke="#010101" stroke-width="0.12" stroke-miterlimit="10" d="M243.953,38.913c0,0-18.342,54.243-17.955,81.564
	"/>
<path fill="none" stroke="#010101" stroke-width="0.12" stroke-miterlimit="10" d="M108.924,20.182
	c1.565,7.024,9.758,22.245,33.171,23.803c32.786,0.783,44.872-20.122,46.441-25.365"/>
<path fill="none" stroke="#010101" stroke-width="0.12" stroke-miterlimit="10" d="M114,16.667
	c1.561,7.024,8.193,20.687,32.78,21.462c27.317-1.949,35.891-17.001,37.461-22.245"/>
<path fill="#FFFFFF" d="M232.635,133.744c0,0,30.829,3.903,51.514-19.125"/>
<path fill="none" stroke="#010101" stroke-width="0.12" stroke-miterlimit="10" d="M232.635,133.744c0,0,30.829,3.903,51.514-19.125
	"/>
<path fill="#FFFFFF" d="M16.438,109.937c0,0,6.241,19.124,49.166,22.245"/>
<path fill="none" stroke="#010101" stroke-width="0.12" stroke-miterlimit="10" d="M16.438,109.937c0,0,6.241,19.124,49.166,22.245"
	/>
<path fill="#FFFFFF" d="M69.12,261.747c0,0,87.805,35.901,157.269-1.174"/>
<path fill="none" stroke="#010101" stroke-width="0.12" stroke-miterlimit="10" d="M69.12,261.747c0,0,87.805,35.901,157.269-1.174"
	/>
<rect x="144.366" y="24.435" fill="#FFFFFF" width="8.144" height="7.667"/>
<rect x="144.366" y="24.435" fill="none" stroke="#010101" stroke-width="0.12" stroke-miterlimit="10" width="8.144" height="7.667"/>
<g>
	<g>
		<defs>
			<rect id="SVGID_1_" x="28.49" y="90.054" width="42.084" height="36.191"/>
		</defs>
		<clipPath id="SVGID_2_">
			<use xlink:href="#SVGID_1_"  overflow="visible"/>
		</clipPath>
		<path clip-path="url(#SVGID_2_)" fill="#DFDFDE" d="M28.49,90.051c4.565,14.236,13.279,41.635,40.944,35.239
			C76.767,123.593,46.976,117.885,28.49,90.051"/>
	</g>
</g>
<g>
	<g>
		<defs>
			<rect id="SVGID_3_" x="36.088" y="56.37" width="8.932" height="34.604"/>
		</defs>
		<clipPath id="SVGID_4_">
			<use xlink:href="#SVGID_3_"  overflow="visible"/>
		</clipPath>
		<path clip-path="url(#SVGID_4_)" fill="#DFDFDE" d="M43.406,56.37c-4.801,8.193-14.071,23.921,0.676,34.305
			C47.991,93.426,38.069,76.91,43.406,56.37"/>
	</g>
</g>
<g>
	<g>
		<defs>
			<rect id="SVGID_5_" x="50.005" y="68.879" width="48.934" height="56.899"/>
		</defs>
		<clipPath id="SVGID_6_">
			<use xlink:href="#SVGID_5_"  overflow="visible"/>
		</clipPath>
		<path clip-path="url(#SVGID_6_)" fill="#E3E3E3" d="M50.619,68.879c12.656,22.527,45.05,49.356,48.088,44.292
			C101.973,107.729,69.854,95.962,50.619,68.879"/>
		<path clip-path="url(#SVGID_6_)" fill="#E3E3E3" d="M50.01,72.553c16.704,27.338,51.199,46.482,47.079,51.636
			C93.036,129.249,57.599,88.247,50.01,72.553"/>
		<path clip-path="url(#SVGID_6_)" fill="#E3E3E3" d="M53.449,80.388c8.604,23.289,28.346,48.601,33.408,45.053
			C91.92,121.899,68.637,110.765,53.449,80.388"/>
	</g>
</g>
<g>
	<g>
		<defs>
			<rect id="SVGID_7_" x="218.515" y="46.946" width="31.708" height="39.667"/>
		</defs>
		<clipPath id="SVGID_8_">
			<use xlink:href="#SVGID_7_"  overflow="visible"/>
		</clipPath>
		<path clip-path="url(#SVGID_8_)" fill="#E3E3E3" d="M250.218,46.948c-12.729,11.997-25.061,37.662-21.239,38.831
			C233.084,87.035,235.572,64.01,250.218,46.948"/>
		<path clip-path="url(#SVGID_8_)" fill="#E3E3E3" d="M247.706,47.146c-15.23,15.443-22.172,41.233-26.229,39.369
			C217.486,84.68,238.635,54.699,247.706,47.146"/>
		<path clip-path="url(#SVGID_8_)" fill="#E3E3E3" d="M243.117,50.689c-13.893,9.458-27.293,26.563-24.139,29.307
			C222.133,82.743,225.645,65.628,243.117,50.689"/>
	</g>
</g>
<g>
	<g>
		<defs>
			<rect id="SVGID_9_" x="99.18" y="163.981" width="97.24" height="99.346"/>
		</defs>
		<clipPath id="SVGID_10_">
			<use xlink:href="#SVGID_9_"  overflow="visible"/>
		</clipPath>
		<path clip-path="url(#SVGID_10_)" fill="#E3E3E3" d="M139.086,163.977c6.603,26.829,32.316,63.729,36.896,59.377
			C180.895,218.683,151.172,197.375,139.086,163.977"/>
		<path clip-path="url(#SVGID_10_)" fill="#E3E3E3" d="M115.832,174.84c28.394,46.456,87.018,78.995,80.013,87.758
			C188.962,271.195,128.734,201.51,115.832,174.84"/>
		<path clip-path="url(#SVGID_10_)" fill="#E3E3E3" d="M99.18,228.329c18.419,18.255,48.277,33.51,51.509,27.926
			C153.916,250.666,126.956,250.396,99.18,228.329"/>
	</g>
</g>
<path fill="#E5E5E5" d="M100.688,170.768c-0.329-6.627-13.521-14.006-10.666-18.566c3.309-5.46,17.39,12.64,20.12,15.601
	c-3.835-19.503-28.09-14.506-28.399-33.664c6.135,6.671,12.038,11.702,20.356,13.067c0.816-10.961-16.83-12.717-22.395-19.462
	c-1.222-1.331-2.816-3.515-4.454-5.937c-1.642-2.43-3.333-5.091-4.782-7.198c0.353,1.193,0.686,2.498,1.01,3.795
	c0.338,1.35,1.367,4.564,2.251,7.854c0.299,1.118,0.584,2.251,0.821,3.313c0.56,2.558,0.952,4.932,1.256,6.946
	c0.343,2.266,0.57,4.07,0.788,5.159c0.613,3.031,0.067,5.437-0.106,11.866c-0.097,3.592,0.667,7.932,0.758,12.54
	c0.28,14.478-1.271,23.313-2.353,31.67c-1.589,12.265-1.599,20.037-1.879,27.549c-0.058,1.512,0.184,3.023,0.439,4.525
	c0.299-24.026,7.231-33.446,6.188-44.76c1.14-0.159,4.405-1.72,5.541-1.874c-0.101-4.995,0.353-8.676-0.884-13.517
	c0,0,1.246,0.667,1.821,0.585C78.863,151.226,97.504,168.7,100.688,170.768"/>
<path fill="#E5E5E5" d="M207.289,136.287c0.633-4.031,7.332-8.27,6.332-11.11c-1.149-3.393-9.047,7.367-10.535,9.118
	c3.213-11.813,14.178-8.292,15.714-19.96c-3.348,3.941-6.478,6.896-10.458,7.562c0.415-6.695,8.787-7.42,11.878-11.424
	c0.672-0.787,1.57-2.084,2.513-3.529c0.946-1.449,1.927-3.036,2.758-4.292c-0.251,0.722-0.502,1.507-0.749,2.294
	c-0.256,0.812-0.971,2.756-1.618,4.739c-0.227,0.676-0.439,1.359-0.628,2.002c-0.449,1.548-0.807,2.988-1.092,4.21
	c-0.323,1.372-0.56,2.468-0.743,3.133c-0.508,1.833-0.431,3.313-0.812,7.231c-0.218,2.19-0.89,4.823-1.266,7.627
	c-1.184,8.818-1.106,14.231-1.208,19.345c-0.145,7.507-0.71,12.24-1.126,16.829c-0.077,0.918-0.304,1.836-0.531,2.749
	c1.608-14.651-0.946-20.527,0.362-27.402c-0.521-0.113-1.932-1.128-2.454-1.249c0.411-3.041,0.464-5.297,1.396-8.214
	c0,0-0.633,0.375-0.889,0.316C218.906,124.803,208.922,135.089,207.289,136.287"/>
</svg>
