<?xml version="1.0" encoding="utf-8"?>
<!-- Generator: Adobe Illustrator 16.0.0, SVG Export Plug-In . SVG Version: 6.00 Build 0)  -->
<!DOCTYPE svg PUBLIC "-//W3C//DTD SVG 1.1//EN" "http://www.w3.org/Graphics/SVG/1.1/DTD/svg11.dtd">
<svg version="1.1" id="Layer_1" xmlns="http://www.w3.org/2000/svg" xmlns:xlink="http://www.w3.org/1999/xlink" x="0px" y="0px"
	 width="300px" height="300px" viewBox="0 0 300 300" enable-background="new 0 0 300 300" xml:space="preserve">
<g>
	<path fill="#FFFFFF" d="M126.378,26.677c-3.303,23.57-24.117,43.821-29.463,66.428c-5.032,21.299-4.454,43.668-5.558,65.597
		c-1.022,20.339-1.667,40.879-1.667,61.28c0,9.754-3.917,47.479-2.782,56.016c22.238,26.692,113.198,11.834,116.646,6.704
		c1.951-2.905-2.126-27.271-1.017-40.611c-1.816-33.354,0.82-78.053,1.667-99.935c0.784-20.323,5.006-39.135,5.006-59.607
		c0-20.406-5.672-35.969-15.57-53.371c-3.494-6.142-7.22-12.092-12.071-17.356c-6.719-7.277-7.4-6.395-15.168-0.988
		c-5.697,3.969-9.98,7.643-16.674,10.009c-5.518,1.951-14.177,4.999-23.906,6.389"/>
	<path fill="none" stroke="#010101" stroke-width="0.12" stroke-miterlimit="10" d="M126.378,26.677
		c-3.303,23.57-24.117,43.821-29.463,66.428c-5.032,21.299-4.454,43.668-5.558,65.597c-1.022,20.339-1.667,40.879-1.667,61.28
		c0,9.754-3.917,47.479-2.782,56.016c22.238,26.692,113.198,11.834,116.646,6.704c1.951-2.905-2.126-27.271-1.017-40.611
		c-1.816-33.354,0.82-78.053,1.667-99.935c0.784-20.323,5.006-39.135,5.006-59.607c0-20.406-5.672-35.969-15.57-53.371
		c-3.494-6.142-7.22-12.092-12.071-17.356c-6.719-7.277-7.4-6.395-15.168-0.988c-5.697,3.969-9.98,7.643-16.674,10.009
		c-5.518,1.951-14.177,4.999-23.906,6.389"/>
	<path fill="#FFFFFF" d="M156.951,25.565c0,0,32.797,21.684,6.673,120.637c0,0-13.897,90.058-0.558,142.863"/>
	<path fill="none" stroke="#010101" stroke-width="0.12" stroke-miterlimit="10" d="M156.951,25.565
		c0,0,32.797,21.684,6.673,120.637c0,0-13.897,90.058-0.558,142.863"/>
	<path fill="#FFFFFF" d="M140.829,129.241c0,0-16.675-87.277,21.128-91.721c0,0,55.588-16.123,37.246,91.721"/>
	<path fill="none" stroke="#010101" stroke-width="0.12" stroke-miterlimit="10" d="M140.829,129.241
		c0,0-16.675-87.277,21.128-91.721c0,0,55.588-16.123,37.246,91.721"/>
	<path fill="#FFFFFF" d="M199.203,129.241c0,4.297-13.067,7.785-29.185,7.785s-29.19-3.488-29.19-7.785
		c0-4.296,13.073-7.785,29.19-7.785S199.203,124.945,199.203,129.241"/>
	<path fill="none" stroke="#010101" stroke-width="0.12" stroke-miterlimit="10" d="M199.203,129.241
		c0,4.297-13.067,7.785-29.185,7.785s-29.19-3.488-29.19-7.785c0-4.296,13.073-7.785,29.19-7.785S199.203,124.945,199.203,129.241z"
		/>
	<path fill="#FFFFFF" d="M139.719,120.904c0,0,29.665-14.977,59.38-0.333c0.578,0.286,1.151,0.581,1.724,0.888"/>
	<path fill="none" stroke="#010101" stroke-width="0.12" stroke-miterlimit="10" d="M139.719,120.904c0,0,29.665-14.977,59.38-0.333
		c0.578,0.286,1.151,0.581,1.724,0.888"/>
	<path fill="#FFFFFF" d="M125.269,32.793c6.668,1.945,20.845-1.389,30.573-6.668c21.123-10.564,21.681-16.394,21.954-17.79"/>
	<path fill="none" stroke="#010101" stroke-width="0.12" stroke-miterlimit="10" d="M125.269,32.793
		c6.668,1.945,20.845-1.389,30.573-6.668c21.123-10.564,21.681-16.394,21.954-17.79"/>
	<g>
		<g>
			<defs>
				<rect id="SVGID_1_" x="145.793" y="139.143" width="39.512" height="147.936"/>
			</defs>
			<clipPath id="SVGID_2_">
				<use xlink:href="#SVGID_1_"  overflow="visible"/>
			</clipPath>
			<path clip-path="url(#SVGID_2_)" fill="#E5E5E5" d="M174.622,231.543c-3.731-1.104-8.902-2.39-1.481-7.814
				c3.556-2.445,17.795-9.041,9.724-10.899c-5.78-1.337-12.412,2.472-16.731,4.872c-8.392,4.82-7.097-4.676-5.136-9.243
				c1.678-4.201-7.303-11.705-5.867-16.107c1.465-4.769,5.795-9.955,5.991-14.785c0.124-4.093,0.614-14.786,0.743-18.879
				c0.253-7.339,2.478-14.167,7.886-13.655c-0.63-0.929-5.862-4.893-6.616-5.889c-5.883,3.262-3.617,16.763-6.296,21.346
				c-0.377,1.403-0.784,2.817-1.218,4.221c-4.377,14.151-10.998,29.206-9.403,30.707c0.154,0.145-1.084,6.307,0.077,17.016
				c0.155,1.42,0.82,3.23,1.502,5.094c0.691,1.904,1.398,3.86,1.579,5.512c0.124,1.146,1.188,1.409,1.662,2.519
				c1.961,4.552-1.27,7.845-0.393,9.651c1.1,2.271,4.17,1.202,4.438,3.685c0.113,1.068-3.401,3.221-3.308,4.314
				c0.145,1.76-0.042,2.932,0.072,4.717c0.072,1.249,1.429,4.784,4.242,7.515c1.336,1.311-0.274,2.817-0.202,3.963
				c0.124,1.915,1.249,3.433,1.508,5.78c0.211,1.879-2.85,4.955-1.44,8.123c0.625,1.399-1.229,2.179,0.526,5.357
				c3.876,0.732,4.49,3.612,2.885,5.595c-0.773,0.959-2.885-0.135-3.334,2.822c2.73-0.201,5.992-0.547,8.376-0.397
				c0.677-0.34,0.609-0.434,1.136-0.96c-0.253-0.01,0.842-3.493,0.826-3.313c0.066-0.743,1.104-0.878,0.918-1.631
				c-0.206-0.568-1.971-0.836-2.173-1.404c-1.067-2.281,3.835-5.408,0.847-6.286c-1.496-0.443-3.782,2.055-4.335-0.201
				c-0.387-1.321,2.519-2.307,3.592-2.813c2.668-1.177,8.908-2.193,9.403-4.769c-1.78-0.088-9.651,1.961-9.393-0.815
				c0.222-2.405,9.894-1.775,12.221-2.033c2.606-0.434,6.822-1.734,3.442-3.943c-2.885-1.991-9.367,1.621-11.509-0.154
				c-0.475-0.397,1.455-4.588,1.796-5.502c0.666-1.641,3.185-3.942,1.78-5.315c-1.408-1.362-8.938-0.227-8.474-2.446
				c0.113-1.29,7.143-2.456,8.448-2.766c2.11-0.646,10.151-1.761,11.256-2.638c2.503-2.121-3.076-2.751-5.367-2.859
				C183.875,234.835,186.104,234.681,174.622,231.543"/>
		</g>
	</g>
	<path fill="#E5E5E5" d="M184.841,75.633c-0.511-4.593-7.065-9.909-5.977-13.01c1.244-3.721,8.799,9.026,10.234,11.119
		c-2.85-13.545-13.898-10.498-15.075-23.745c3.226,4.714,6.255,8.291,10.208,9.37c-0.217-7.561-8.546-9.068-11.504-13.824
		c-0.645-0.942-1.507-2.475-2.399-4.175c-0.898-1.708-1.832-3.579-2.622-5.058c0.228,0.833,0.454,1.736,0.677,2.642
		c0.227,0.934,0.882,3.177,1.476,5.463c0.201,0.779,0.393,1.566,0.558,2.304c0.402,1.778,0.712,3.424,0.965,4.82
		c0.284,1.574,0.485,2.828,0.646,3.584c0.448,2.108,0.325,3.757,0.588,8.195c0.149,2.485,0.743,5.496,1.032,8.683
		c0.908,10.015,0.666,16.091,0.609,21.846c-0.078,8.451,0.335,13.826,0.608,19.015c0.057,1.042,0.253,2.093,0.454,3.141
		c-1.161-16.61,1.569-23,0.47-30.839c0.521-0.088,1.967-1.115,2.487-1.202c-0.319-3.458-0.299-5.995-1.146-9.354
		c0,0,0.625,0.475,0.883,0.431C173.601,61.761,183.246,74.152,184.841,75.633"/>
	<path fill="#E3E3E3" d="M170.617,90.708c-8.216,4.472-18.084,16.061-16.262,17.18C156.307,109.099,160.724,97.536,170.617,90.708"
		/>
	<path fill="#E3E3E3" d="M175.309,82.574c-5.548,10.177-5.311,24.452-7.675,24.094C165.317,106.314,171.763,87.792,175.309,82.574"
		/>
	<path fill="#E3E3E3" d="M167.624,88.486c-8.944,0.823-19.643,5.349-18.879,7.452C149.504,98.036,155.584,90.943,167.624,88.486"/>
	<path fill="#E3E3E3" d="M142.243,216.628c-13.846,7.534-30.485,27.079-27.419,28.973
		C118.116,247.639,125.563,228.146,142.243,216.628"/>
	<path fill="#E3E3E3" d="M150.154,202.915c-9.362,17.165-8.959,41.226-12.938,40.621
		C133.304,242.942,144.173,211.715,150.154,202.915"/>
	<path fill="#E3E3E3" d="M137.195,212.881c-15.08,1.389-33.117,9.021-31.827,12.562C106.653,228.982,116.898,217.03,137.195,212.881
		"/>
</g>
</svg>
