<?xml version="1.0" encoding="utf-8"?>
<!-- Generator: Adobe Illustrator 16.0.0, SVG Export Plug-In . SVG Version: 6.00 Build 0)  -->
<!DOCTYPE svg PUBLIC "-//W3C//DTD SVG 1.1//EN" "http://www.w3.org/Graphics/SVG/1.1/DTD/svg11.dtd">
<svg version="1.1" id="Layer_1" xmlns="http://www.w3.org/2000/svg" xmlns:xlink="http://www.w3.org/1999/xlink" x="0px" y="0px"
	 width="300px" height="300px" viewBox="0 0 300 300" enable-background="new 0 0 300 300" xml:space="preserve">
<path fill="#FFFFFF" d="M176.855,28.642c3.271,23.339,23.881,43.392,29.175,65.783c4.982,21.085,4.41,43.236,5.504,64.95
	c1.012,20.14,1.651,40.479,1.651,60.681c0,9.658,3.878,47.016,2.754,55.473c-22.021,26.426-112.09,11.713-115.509,6.628
	c-1.927-2.871,2.11-26.993,1.012-40.208c1.799-33.028-0.813-77.289-1.656-98.957c-0.771-20.125-4.952-38.754-4.952-59.027
	c0-20.204,5.616-35.614,15.418-52.841c3.46-6.086,7.149-11.979,11.953-17.191c6.654-7.206,7.328-6.332,15.02-0.979
	c5.642,3.929,9.883,7.568,16.512,9.911c5.463,1.932,14.038,4.949,23.666,6.327"/>
<path fill="none" stroke="#010101" stroke-width="0.12" stroke-miterlimit="10" d="M176.855,28.642
	c3.271,23.339,23.881,43.392,29.175,65.783c4.982,21.085,4.41,43.236,5.504,64.95c1.012,20.14,1.651,40.479,1.651,60.681
	c0,9.658,3.878,47.016,2.754,55.473c-22.021,26.426-112.09,11.713-115.509,6.628c-1.927-2.871,2.11-26.993,1.012-40.208
	c1.799-33.028-0.813-77.289-1.656-98.957c-0.771-20.125-4.952-38.754-4.952-59.027c0-20.204,5.616-35.614,15.418-52.841
	c3.46-6.086,7.149-11.979,11.953-17.191c6.654-7.206,7.328-6.332,15.02-0.979c5.642,3.929,9.883,7.568,16.512,9.911
	c5.463,1.932,14.038,4.949,23.666,6.327"/>
<path fill="#FFFFFF" d="M146.582,27.541c0,0-32.477,21.471-6.608,119.458c0,0,13.762,89.176,0.552,141.465"/>
<path fill="none" stroke="#010101" stroke-width="0.12" stroke-miterlimit="10" d="M146.582,27.541c0,0-32.477,21.471-6.608,119.458
	c0,0,13.762,89.176,0.552,141.465"/>
<path fill="#FFFFFF" d="M162.541,130.205c0,0,16.517-86.421-20.917-90.829c0,0-55.043-15.959-36.881,90.829"/>
<path fill="none" stroke="#010101" stroke-width="0.12" stroke-miterlimit="10" d="M162.541,130.205
	c0,0,16.517-86.421-20.917-90.829c0,0-55.043-15.959-36.881,90.829"/>
<path fill="#FFFFFF" d="M104.743,130.205c0,4.252,12.939,7.706,28.894,7.706c15.964,0,28.904-3.454,28.904-7.706
	c0-4.254-12.939-7.707-28.904-7.707C117.683,122.499,104.743,125.951,104.743,130.205"/>
<path fill="none" stroke="#010101" stroke-width="0.12" stroke-miterlimit="10" d="M104.743,130.205
	c0,4.252,12.939,7.706,28.894,7.706c15.964,0,28.904-3.454,28.904-7.706c0-4.254-12.939-7.707-28.904-7.707
	C117.683,122.499,104.743,125.951,104.743,130.205z"/>
<path fill="#FFFFFF" d="M163.646,121.947c0,0-29.375-14.83-58.8-0.325c-0.573,0.279-1.14,0.57-1.712,0.874"/>
<path fill="none" stroke="#010101" stroke-width="0.12" stroke-miterlimit="10" d="M163.646,121.947c0,0-29.375-14.83-58.8-0.325
	c-0.573,0.279-1.14,0.57-1.712,0.874"/>
<path fill="#FFFFFF" d="M177.954,34.697c-6.603,1.927-20.641-1.375-30.274-6.603c-20.922-10.461-21.469-16.233-21.74-17.615"/>
<path fill="none" stroke="#010101" stroke-width="0.12" stroke-miterlimit="10" d="M177.954,34.697
	c-6.603,1.927-20.641-1.375-30.274-6.603c-20.922-10.461-21.469-16.233-21.74-17.615"/>
<g>
	<g>
		<defs>
			<rect id="SVGID_1_" x="118.505" y="140.007" width="39.125" height="146.493"/>
		</defs>
		<clipPath id="SVGID_2_">
			<use xlink:href="#SVGID_1_"  overflow="visible"/>
		</clipPath>
		<path clip-path="url(#SVGID_2_)" fill="#E5E5E5" d="M129.083,231.503c3.695-1.089,8.815-2.366,1.467-7.737
			c-3.521-2.412-17.625-8.943-9.628-10.793c5.724-1.323,12.291,2.447,16.568,4.829c8.305,4.773,7.027-4.635,5.084-9.158
			c-1.661-4.159,7.231-11.59,5.811-15.943c-1.457-4.718-5.739-9.863-5.934-14.646c-0.123-4.053-0.607-14.642-0.735-18.694
			c-0.25-7.267-2.453-14.027-7.814-13.521c0.628-0.92,5.811-4.845,6.556-5.831c5.826,3.229,3.583,16.599,6.235,21.137
			c0.373,1.39,0.776,2.79,1.206,4.189c4.333,14.009,10.89,28.915,9.312,30.397c-0.154,0.143,1.072,6.244-0.078,16.849
			c-0.152,1.405-0.813,3.199-1.486,5.044c-0.685,1.886-1.39,3.822-1.563,5.458c-0.123,1.135-1.176,1.395-1.646,2.493
			c-1.942,4.508,1.257,7.769,0.388,9.567c-1.088,2.243-4.128,1.181-4.395,3.639c-0.112,1.058,3.368,3.188,3.275,4.272
			c-0.143,1.741,0.036,2.902-0.071,4.67c-0.071,1.242-1.416,4.737-4.201,7.44c-1.329,1.299,0.271,2.791,0.199,3.925
			c-0.127,1.896-1.236,3.404-1.498,5.729c-0.204,1.854,2.827,4.9,1.431,8.038c-0.619,1.386,1.216,2.156-0.521,5.305
			c-3.838,0.726-4.446,3.577-2.856,5.539c0.767,0.951,2.856-0.132,3.302,2.797c-2.709-0.2-5.934-0.542-8.294-0.394
			c-0.674-0.338-0.603-0.419-1.129-0.951c0.255-0.01-0.828-3.46-0.813-3.276c-0.066-0.74-1.094-0.873-0.91-1.62
			c0.204-0.562,1.952-0.821,2.151-1.389c1.058-2.26-3.797-5.356-0.838-6.225c1.482-0.439,3.741,2.033,4.293-0.2
			c0.383-1.308-2.499-2.273-3.557-2.785c-2.643-1.165-8.821-2.171-9.312-4.722c1.763-0.087,9.557,1.952,9.301-0.807
			c-0.224-2.382-9.796-1.759-12.101-2.015c-2.581-0.429-6.756-1.717-3.409-3.903c2.856-1.974,9.275,1.604,11.396-0.154
			c0.47-0.388-1.441-4.538-1.783-5.446c-0.654-1.626-3.153-3.905-1.763-5.265c1.4-1.349,8.856-0.226,8.396-2.422
			c-0.118-1.278-7.073-2.433-8.366-2.734c-2.09-0.645-10.057-1.747-11.151-2.616c-2.474-2.101,3.046-2.724,5.32-2.831
			C119.921,234.763,117.713,234.61,129.083,231.503"/>
	</g>
</g>
<path fill="#E5E5E5" d="M118.965,77.121c0.506-4.548,6.996-9.812,5.917-12.883c-1.236-3.689-8.713,8.933-10.134,11.011
	c2.821-13.417,13.762-10.395,14.928-23.518c-3.194,4.673-6.194,8.212-10.108,9.283c0.215-7.486,8.462-8.979,11.391-13.688
	c0.639-0.938,1.493-2.456,2.376-4.14c0.889-1.686,1.814-3.539,2.596-5.003c-0.225,0.82-0.45,1.717-0.669,2.617
	c-0.23,0.925-0.874,3.145-1.461,5.412c-0.199,0.769-0.394,1.548-0.557,2.279c-0.394,1.76-0.7,3.394-0.951,4.773
	c-0.281,1.554-0.48,2.801-0.639,3.549c-0.445,2.087-0.322,3.721-0.583,8.115c-0.148,2.456-0.735,5.443-1.022,8.599
	c-0.904,9.911-0.659,15.934-0.603,21.632c0.077,8.368-0.337,13.69-0.603,18.829c-0.056,1.032-0.25,2.072-0.45,3.104
	c1.145-16.442-1.553-22.774-0.464-30.534c-0.517-0.084-1.948-1.104-2.464-1.193c0.317-3.419,0.296-5.931,1.135-9.258
	c0,0-0.619,0.471-0.874,0.424C130.096,63.384,120.544,75.652,118.965,77.121"/>
<path fill="#E3E3E3" d="M133.049,92.046c8.136,4.428,17.902,15.903,16.103,17.018C147.22,110.257,142.846,98.807,133.049,92.046"/>
<path fill="#E3E3E3" d="M128.404,83.992c5.494,10.078,5.258,24.213,7.599,23.863C138.298,107.5,131.915,89.164,128.404,83.992"/>
<path fill="#E3E3E3" d="M136.014,89.849c8.856,0.81,19.45,5.294,18.693,7.375C153.951,99.305,147.936,92.281,136.014,89.849"/>
<path fill="#E3E3E3" d="M161.146,216.734c13.711,7.46,30.187,26.813,27.146,28.689C185.032,247.442,177.663,228.141,161.146,216.734
	"/>
<path fill="#E3E3E3" d="M153.313,203.155c9.27,16.998,8.871,40.826,12.812,40.224C169.992,242.792,159.234,211.868,153.313,203.155"
	/>
<path fill="#E3E3E3" d="M166.145,213.023c14.932,1.375,32.793,8.933,31.515,12.438C196.388,228.968,186.243,217.132,166.145,213.023
	"/>
</svg>
